<svg width="65" height="64" viewBox="0 0 65 64" fill="none" xmlns="http://www.w3.org/2000/svg">
<rect x="0.5" width="64" height="64" rx="4" fill="#AA00FF"/>
<g clip-path="url(#clip0_107_1290)">
<path d="M23.9671 53.3331C22.8449 53.3331 21.7463 52.8766 20.9505 52.083L8.15052 39.283C7.35692 38.4873 6.90039 37.3886 6.90039 36.2665C6.90039 35.1443 7.35692 34.0457 8.15052 33.2499L27.3505 14.0499C28.1463 13.2563 29.2449 12.7998 30.3671 12.7998H43.1671C43.4423 12.7998 43.7025 12.8318 43.9585 12.8958C45.8999 13.1923 47.4337 14.9929 47.4337 17.0665V29.8665C47.4337 30.9886 46.9772 32.0873 46.1836 32.883L26.9836 52.083C26.1879 52.8766 25.0892 53.3331 23.9671 53.3331ZM30.3671 14.9331C29.806 14.9331 29.2577 15.1614 28.8588 15.5582L9.65879 34.7582C9.26199 35.1571 9.03372 35.7054 9.03372 36.2665C9.03372 36.8275 9.26199 37.3758 9.65879 37.7747L22.4588 50.5747C23.2545 51.3705 24.6775 51.3705 25.4732 50.5747L44.6732 31.3747C45.0721 30.9758 45.3004 30.4275 45.3004 29.8665V17.0665C45.3004 16.0361 44.5431 15.1401 43.5361 14.9843C43.3527 14.9417 43.2695 14.9331 43.1671 14.9331H30.3671Z" fill="white"/>
<path d="M53.6845 57.6H34.7832C33.6205 57.6 32.4877 57.1498 31.6728 56.3605C30.8429 55.5584 30.3672 54.4533 30.3672 53.3333V46.1226C30.3672 45.8389 30.4803 45.568 30.6787 45.3674L44.6733 31.3728C45.0723 30.976 45.3005 30.4277 45.3005 29.8666V17.0666C45.3005 16.0362 44.5432 15.1402 43.5363 14.9845C43.0221 14.9034 42.6424 14.4661 42.6339 13.9477C42.6253 13.4293 42.9923 12.977 43.5043 12.881C44.8909 12.625 46.3331 13.056 47.3443 14.0394L56.7907 23.1018C57.6248 23.9082 58.1005 25.0133 58.1005 26.1333V53.3333C58.1005 54.4533 57.6248 55.5584 56.7949 56.3605C55.98 57.1498 54.8472 57.6 53.6845 57.6ZM32.5005 46.5642V53.3333C32.5005 53.8794 32.7395 54.4256 33.1576 54.8288C33.5757 55.2341 34.1688 55.4666 34.7832 55.4666H53.6845C54.2989 55.4666 54.8899 55.2341 55.3101 54.8288C55.7283 54.4256 55.9672 53.8794 55.9672 53.3333V26.1333C55.9672 25.5872 55.7283 25.041 55.3101 24.6378L47.4339 17.0816V29.8666C47.4339 30.9888 46.9773 32.0874 46.1837 32.8832L32.5005 46.5642Z" fill="white"/>
<path d="M39.9666 23.4664C38.2023 23.4664 36.7666 22.0307 36.7666 20.2664C36.7666 18.5021 38.2023 17.0664 39.9666 17.0664C41.7309 17.0664 43.1666 18.5021 43.1666 20.2664C43.1666 22.0307 41.7309 23.4664 39.9666 23.4664ZM39.9666 19.1997C39.3778 19.1997 38.8999 19.6776 38.8999 20.2664C38.8999 20.8552 39.3778 21.3331 39.9666 21.3331C40.5554 21.3331 41.0333 20.8552 41.0333 20.2664C41.0333 19.6776 40.5554 19.1997 39.9666 19.1997Z" fill="white"/>
<path d="M52.7671 21.3332C52.1783 21.3332 51.7004 20.8554 51.7004 20.2666V13.8666C51.7004 10.9268 49.3068 8.53324 46.3671 8.53324C43.4273 8.53324 41.0337 10.9268 41.0337 13.8666V18.1332C41.0337 18.722 40.5559 19.1999 39.9671 19.1999C39.3783 19.1999 38.9004 18.722 38.9004 18.1332V13.8666C38.9004 9.74924 42.2497 6.3999 46.3671 6.3999C50.4844 6.3999 53.8337 9.74924 53.8337 13.8666V20.2666C53.8337 20.8554 53.3559 21.3332 52.7671 21.3332Z" fill="white"/>
</g>
<defs>
<clipPath id="clip0_107_1290">
<rect width="51.2" height="51.2" fill="white" transform="translate(6.90039 6.3999)"/>
</clipPath>
</defs>
</svg>
