<svg width="65" height="64" viewBox="0 0 65 64" fill="none" xmlns="http://www.w3.org/2000/svg">
<rect x="0.5" width="64" height="64" rx="4" fill="#AA00FF"/>
<g clip-path="url(#clip0_107_1296)">
<path d="M32.4981 15.5034C23.4021 15.5034 16.002 22.9036 16.002 31.9996C16.002 41.0955 23.4021 48.4957 32.4981 48.4957C41.5941 48.4957 48.9942 41.0955 48.9942 31.9996C48.9942 22.9036 41.5942 15.5034 32.4981 15.5034ZM32.4981 45.4964C25.0559 45.4964 19.0013 39.4417 19.0013 31.9996C19.0013 24.5574 25.0559 18.5027 32.4981 18.5027C39.9402 18.5027 45.9949 24.5574 45.9949 31.9996C45.9949 39.4417 39.9403 45.4964 32.4981 45.4964Z" fill="white"/>
<path d="M38.9358 26.4402L30.9983 34.3777L26.06 29.4395C25.4745 28.8539 24.5249 28.8539 23.9392 29.4395C23.3536 30.0252 23.3536 30.9747 23.9392 31.5603L29.9378 37.5589C30.2307 37.8517 30.6145 37.9982 30.9982 37.9982C31.3819 37.9982 31.7658 37.8518 32.0585 37.5589L41.0564 28.561C41.6421 27.9754 41.6421 27.0259 41.0564 26.4402C40.471 25.8546 39.5214 25.8546 38.9358 26.4402Z" fill="white"/>
<path d="M55.953 21.4851C55.948 21.482 50.7152 18.3498 50.7152 18.3498L49.5406 13.4851C49.0194 11.3265 47.0346 9.88374 44.8202 10.0555L38.8572 10.517C38.8572 10.517 35.4223 7.4855 35.4155 7.4798C33.7251 6.03994 31.2712 6.03994 29.5808 7.4798C29.5741 7.4855 26.1391 10.517 26.1391 10.517L20.1761 10.0555C17.9795 9.88494 16.0098 11.3025 15.469 13.4313L13.8338 18.6417C13.8338 18.6417 9.05417 21.4812 9.04787 21.4851C7.15602 22.6478 6.39769 24.9816 7.24489 27.0343L9.28522 31.9787L7.24489 36.9229C6.39769 38.9756 7.15602 41.3094 9.04797 42.4721C9.05377 42.4757 14.2763 45.5876 14.2763 45.5876L15.4559 50.4721C15.949 52.5145 17.7523 53.9157 19.8204 53.9155C20.1368 53.9155 19.7815 53.9275 26.0772 53.445C26.0772 53.445 29.5753 56.5147 29.5809 56.5194C30.4261 57.2393 31.4621 57.5994 32.4983 57.5994C33.5343 57.5994 34.5705 57.2393 35.4157 56.5194C35.4213 56.5146 38.9194 53.445 38.9194 53.445L44.8203 53.9017C47.034 54.0728 49.0196 52.6307 49.5407 50.4721L50.7153 45.6074C57.1185 41.7745 55.7608 42.5907 55.9531 42.472C57.8448 41.3093 58.6032 38.9755 57.756 36.9228L55.7156 31.9785L57.756 27.0341C58.6031 24.9816 57.8448 22.6479 55.953 21.4851ZM52.7069 32.5507L54.9834 38.0671C55.2649 38.7492 55.0147 39.5244 54.3885 39.9132L48.635 43.3573C48.2897 43.5639 48.0419 43.9008 47.9475 44.292L46.6251 49.7684C46.4514 50.4878 45.7908 50.9684 45.0516 50.9115L38.5208 50.406C38.1186 50.3749 37.7196 50.5075 37.4159 50.7741L33.4637 54.2423C32.9027 54.7144 32.0937 54.7144 31.5327 54.2421L27.5806 50.7741C27.2769 50.5075 26.8778 50.3746 26.4758 50.406L19.9449 50.9115C19.2064 50.9685 18.5451 50.4878 18.3715 49.7683L17.0439 44.2703C16.9492 43.8781 16.7004 43.5405 16.3538 43.334L10.6112 39.9123C9.98595 39.5232 9.73621 38.7487 10.0175 38.067L12.294 32.5506C12.4453 32.1842 12.4453 31.7729 12.294 31.4065L10.0172 25.8901C9.73611 25.2088 9.98555 24.4347 10.6101 24.0454L15.8589 20.9272C16.1764 20.7386 16.4131 20.4395 16.5237 20.087C18.4581 13.9198 18.3489 14.2818 18.3713 14.1889C18.5449 13.4695 19.2044 12.9882 19.9447 13.0458L26.5402 13.5563C26.9449 13.5875 27.3442 13.4537 27.6482 13.1855L31.5341 9.75587C32.0943 9.28538 32.9017 9.28538 33.462 9.75567L37.348 13.1855C37.6521 13.4539 38.0524 13.5875 38.4561 13.5563L45.0515 13.0458C45.7893 12.9888 46.4513 13.4694 46.625 14.189L47.9474 19.6653C48.0418 20.0566 48.2896 20.3934 48.6349 20.6001L54.3884 24.0441C55.0146 24.4329 55.2649 25.208 54.9833 25.8901L52.7068 31.4065C52.5557 31.773 52.5557 32.1843 52.7069 32.5507Z" fill="white"/>
</g>
<defs>
<clipPath id="clip0_107_1296">
<rect width="51.2" height="51.2" fill="white" transform="translate(6.90039 6.3999)"/>
</clipPath>
</defs>
</svg>
