<svg width="65" height="64" viewBox="0 0 65 64" fill="none" xmlns="http://www.w3.org/2000/svg">
<rect x="0.5" width="64" height="64" rx="4" fill="#AA00FF"/>
<path d="M51.7002 15.9997H32.273C31.5574 13.2473 29.0734 11.1997 26.1002 11.1997C23.127 11.1997 20.643 13.2473 19.9274 15.9997H13.3002C12.4166 15.9997 11.7002 16.7161 11.7002 17.5997C11.7002 18.4833 12.4166 19.1997 13.3002 19.1997H19.9274C20.643 21.9521 23.127 23.9997 26.1002 23.9997C29.0734 23.9997 31.5574 21.9521 32.273 19.1997H51.7002C52.5838 19.1997 53.3002 18.4833 53.3002 17.5997C53.3002 16.7161 52.5838 15.9997 51.7002 15.9997ZM26.1002 20.7997C24.3354 20.7997 22.9002 19.3645 22.9002 17.5997C22.9002 15.8349 24.3354 14.3997 26.1002 14.3997C27.865 14.3997 29.3002 15.8349 29.3002 17.5997C29.3002 19.3645 27.865 20.7997 26.1002 20.7997ZM51.7002 30.3997H45.073C44.3574 27.6473 41.8734 25.5997 38.9002 25.5997C35.927 25.5997 33.443 27.6473 32.7274 30.3997H13.3002C12.4166 30.3997 11.7002 31.1161 11.7002 31.9997C11.7002 32.8833 12.4166 33.5997 13.3002 33.5997H32.7274C33.443 36.3521 35.927 38.3997 38.9002 38.3997C41.8734 38.3997 44.3574 36.3521 45.073 33.5997H51.7002C52.5838 33.5997 53.3002 32.8833 53.3002 31.9997C53.3002 31.1161 52.5838 30.3997 51.7002 30.3997ZM38.9002 35.1997C37.1354 35.1997 35.7002 33.7645 35.7002 31.9997C35.7002 30.2349 37.1354 28.7997 38.9002 28.7997C40.665 28.7997 42.1002 30.2349 42.1002 31.9997C42.1002 33.7645 40.665 35.1997 38.9002 35.1997ZM51.7002 44.7997H32.273C31.5574 42.0473 29.0734 39.9997 26.1002 39.9997C23.127 39.9997 20.643 42.0473 19.9274 44.7997H13.3002C12.4166 44.7997 11.7002 45.5161 11.7002 46.3997C11.7002 47.2833 12.4166 47.9997 13.3002 47.9997H19.9274C20.643 50.7521 23.127 52.7997 26.1002 52.7997C29.0734 52.7997 31.5574 50.7521 32.273 47.9997H51.7002C52.5838 47.9997 53.3002 47.2833 53.3002 46.3997C53.3002 45.5161 52.5838 44.7997 51.7002 44.7997ZM26.1002 49.5997C24.3354 49.5997 22.9002 48.1645 22.9002 46.3997C22.9002 44.6349 24.3354 43.1997 26.1002 43.1997C27.865 43.1997 29.3002 44.6349 29.3002 46.3997C29.3002 48.1645 27.865 49.5997 26.1002 49.5997Z" fill="white"/>
</svg>
