<svg width="64" height="64" viewBox="0 0 64 64" fill="none" xmlns="http://www.w3.org/2000/svg">
<rect width="64" height="64" rx="4" fill="#AA00FF"/>
<g clip-path="url(#clip0_107_1044)">
<path d="M56.7393 50.7625H55.0329V49.0561H53.3265V50.7625H51.6201V49.0561H49.9137V50.7625H37.2165C36.3058 50.7579 35.4721 51.272 35.068 52.0877C34.9526 52.3223 34.7127 52.4706 34.451 52.4689H29.5376C29.2756 52.4706 29.0361 52.3223 28.9207 52.0877C28.517 51.2733 27.6854 50.7592 26.7764 50.7625H14.0792V35.4049H12.3728V50.7625H10.6664V35.4049H8.95999V50.7625H7.25359C6.78241 50.7625 6.40039 51.1446 6.40039 51.6157V54.1753C6.40039 56.06 7.92849 57.5881 9.8132 57.5881H54.1797C56.0644 57.5881 57.5925 56.06 57.5925 54.1753V51.6157C57.5925 51.1446 57.2104 50.7625 56.7393 50.7625ZM55.8861 54.1753C55.8861 55.1177 55.122 55.8817 54.1797 55.8817H9.8132C8.87084 55.8817 8.10679 55.1177 8.10679 54.1753V52.4689H26.7764C27.0384 52.4673 27.278 52.6156 27.3934 52.8501C27.7971 53.6646 28.6286 54.1787 29.5376 54.1753H34.4552C35.3659 54.1803 36.1995 53.6658 36.6036 52.8501C36.7186 52.6168 36.9561 52.4689 37.2165 52.4689H55.8861V54.1753Z" fill="white"/>
<path d="M28.5836 20.0473V18.3409H13.226C10.8709 18.3439 8.96288 20.2519 8.95996 22.6069V23.4601H10.6664V22.6069C10.6664 21.1934 11.8124 20.0473 13.226 20.0473H28.5836Z" fill="white"/>
<path d="M12.373 23.4601H30.2903V21.7537H14.0794C13.1371 21.7537 12.373 22.5177 12.373 23.4601Z" fill="white"/>
<path d="M54.8094 17.1353L55.8334 13.9079C55.9063 13.6792 55.8797 13.43 55.7601 13.2221C55.6401 13.0143 55.4381 12.8664 55.204 12.8147L51.8941 12.0911L51.1742 8.78492C51.1233 8.55079 50.9767 8.34832 50.7692 8.22792C50.5618 8.10711 50.3135 8.07919 50.0847 8.15127L46.8569 9.17486L44.5719 6.67441C44.4065 6.50402 44.179 6.4082 43.9415 6.4082C43.7041 6.4082 43.4766 6.50402 43.3112 6.67441L41.0295 9.17944L37.7983 8.15127C37.5696 8.07794 37.3209 8.10502 37.1126 8.225C36.9047 8.34499 36.7568 8.54704 36.7056 8.78159L35.9819 12.0911L32.6791 12.8147C32.4446 12.866 32.2425 13.0138 32.1225 13.2217C32.0025 13.43 31.9759 13.6787 32.0488 13.9079L33.0728 17.1353L30.5678 19.417C30.3903 19.5787 30.2891 19.8074 30.2891 20.0473C30.2891 20.2873 30.3903 20.516 30.5678 20.6777L33.0728 22.9594L32.0488 26.1868C31.9759 26.4159 32.0025 26.6646 32.1225 26.8729C32.2425 27.0808 32.4446 27.2287 32.6791 27.28L35.989 28.0036L36.7122 31.3131C36.7635 31.5476 36.9114 31.7497 37.1197 31.8697C37.3276 31.9897 37.5767 32.0167 37.8054 31.9434L41.0328 30.9152L43.3145 33.4203C43.4762 33.5977 43.7049 33.699 43.9449 33.699C44.1848 33.699 44.414 33.5977 44.5756 33.4203L46.8569 30.9152L50.0847 31.9434C50.3135 32.0167 50.5622 31.9897 50.7705 31.8697C50.9784 31.7497 51.1263 31.5476 51.1775 31.3131L51.9011 28.0036L55.2106 27.28C55.4452 27.2287 55.6472 27.0808 55.7672 26.8729C55.8872 26.6646 55.9143 26.4159 55.8409 26.1868L54.8173 22.9594L57.3224 20.6777C57.4994 20.516 57.6007 20.2873 57.6007 20.0473C57.6007 19.8074 57.4994 19.5787 57.3224 19.417L54.8094 17.1353ZM53.2559 22.0662C53.0097 22.2907 52.9164 22.6382 53.018 22.9561L53.9242 25.8131L50.995 26.4538C50.6701 26.5255 50.4164 26.7792 50.3447 27.1042L49.7073 30.03L46.8502 29.1201C46.5324 29.0201 46.1854 29.113 45.9604 29.3584L43.9415 31.5785L41.9227 29.3601C41.761 29.1826 41.5323 29.0818 41.2924 29.0818C41.2053 29.0822 41.1191 29.0955 41.0366 29.1222L38.1758 30.03L37.535 27.1008C37.4634 26.7759 37.2097 26.5222 36.8847 26.4505L33.9589 25.8131L34.8688 22.9561C34.97 22.6382 34.8771 22.2907 34.6305 22.0662L32.4104 20.0473L34.6288 18.0285C34.8754 17.8039 34.9683 17.4565 34.8667 17.1386L33.9589 14.2816L36.888 13.6408C37.213 13.5692 37.4667 13.3155 37.5384 12.9905L38.1758 10.0647L41.0328 10.9746C41.3507 11.0758 41.6981 10.9829 41.9227 10.7363L43.9415 8.51621L45.9604 10.7346C46.1849 10.9812 46.5324 11.0741 46.8502 10.9725L49.7073 10.0647L50.348 12.9938C50.4197 13.3188 50.6734 13.5725 50.9984 13.6442L53.9275 14.2849L53.018 17.1424C52.9164 17.4598 53.0097 17.8073 53.2559 18.0322L55.4727 20.0473L53.2559 22.0662Z" fill="white"/>
<path d="M39.0723 23.7101L47.6039 15.1781L48.8108 16.3846L40.2787 24.9166L39.0723 23.7101Z" fill="white"/>
<path d="M42.2344 17.4877C42.2344 16.0742 41.0884 14.9281 39.6748 14.9281C38.2613 14.9281 37.1152 16.0742 37.1152 17.4877C37.1152 18.9012 38.2613 20.0473 39.6748 20.0473C41.0884 20.0473 42.2344 18.9012 42.2344 17.4877ZM38.8216 17.4877C38.8216 17.0165 39.2037 16.6345 39.6748 16.6345C40.146 16.6345 40.528 17.0165 40.528 17.4877C40.528 17.9589 40.146 18.3409 39.6748 18.3409C39.2037 18.3409 38.8216 17.9589 38.8216 17.4877Z" fill="white"/>
<path d="M48.2071 20.0472C46.7935 20.0472 45.6475 21.1933 45.6475 22.6068C45.6475 24.0204 46.7935 25.1664 48.2071 25.1664C49.6206 25.1664 50.7667 24.0204 50.7667 22.6068C50.7667 21.1933 49.6206 20.0472 48.2071 20.0472ZM48.2071 23.46C47.7359 23.46 47.3539 23.078 47.3539 22.6068C47.3539 22.1357 47.7359 21.7536 48.2071 21.7536C48.6782 21.7536 49.0603 22.1357 49.0603 22.6068C49.0603 23.078 48.6782 23.46 48.2071 23.46Z" fill="white"/>
<path d="M28.5528 29.2338C28.2674 29.1655 27.9666 29.2501 27.7587 29.4571L19.4313 37.6983L17.4066 38.9032C16.0626 39.6847 15.456 41.3053 15.9564 42.7776C16.348 43.9711 17.3945 44.8306 18.6414 44.9839L20.4186 48.58C20.5627 48.872 20.8606 49.0566 21.1864 49.0553H24.543C24.8308 49.0558 25.0995 48.9108 25.2574 48.67C25.4153 48.4292 25.4412 48.1246 25.3262 47.8609L23.5598 43.7832L32.835 43.937H32.8496C33.1254 43.937 33.3841 43.8036 33.5441 43.5791C33.704 43.3546 33.7457 43.0663 33.6557 42.8055L29.1656 29.7858C29.0698 29.5088 28.8385 29.3005 28.5528 29.2338ZM17.5774 42.2306C17.3374 41.5215 17.6303 40.742 18.2777 40.3663L19.6104 39.5756L21.1027 42.5268L19.8391 43.1521C19.4154 43.3625 18.9209 43.3783 18.4843 43.1962C18.0552 43.0225 17.7236 42.6697 17.5774 42.2306ZM21.7171 47.3498L20.4269 44.7439C20.4807 44.7202 20.5386 44.711 20.5923 44.6843L21.823 44.0753L23.2407 47.3498H21.7171ZM22.782 42.0677L21.0039 38.5474L27.9999 31.6243L31.651 42.211L22.782 42.0677Z" fill="white"/>
<path d="M32.9863 35.6224L35.808 34.6417L36.3675 36.2527L33.5462 37.2334L32.9863 35.6224Z" fill="white"/>
<path d="M30.7695 29.9504L32.6513 27.989L33.8828 29.1705L32.0006 31.1319L30.7695 29.9504Z" fill="white"/>
<path d="M35.4092 41.3773H37.9688V43.0837H35.4092V41.3773Z" fill="white"/>
<path d="M56.7388 35.4049H55.0324V29.4325H53.326V35.4049H51.6196V33.6985H49.9132V35.4049H40.528C40.0568 35.4049 39.6748 35.7869 39.6748 36.2581V46.4965C39.6748 46.9677 40.0568 47.3497 40.528 47.3497H56.7388C57.21 47.3497 57.592 46.9677 57.592 46.4965V36.2581C57.592 35.7869 57.21 35.4049 56.7388 35.4049ZM55.8856 45.6433H41.3812V37.1113H55.8856V45.6433Z" fill="white"/>
<path d="M43.0879 38.8177H46.5007V40.5242H43.0879V38.8177Z" fill="white"/>
<path d="M48.207 38.8177H54.1794V40.5242H48.207V38.8177Z" fill="white"/>
<path d="M43.0879 42.2305H54.1795V43.9369H43.0879V42.2305Z" fill="white"/>
<path d="M7.25359 33.6985H20.0516C20.5228 33.6985 20.9048 33.3165 20.9048 32.8453V26.0197C20.9048 25.5485 20.5228 25.1665 20.0516 25.1665H7.25359C6.78241 25.1665 6.40039 25.5485 6.40039 26.0197V32.8453C6.40039 33.3165 6.78241 33.6985 7.25359 33.6985ZM8.10679 26.8729H19.1984V31.9921H8.10679V26.8729Z" fill="white"/>
<path d="M9.81348 28.5793H11.5199V30.2857H9.81348V28.5793Z" fill="white"/>
<path d="M13.2256 28.5793H17.4916V30.2857H13.2256V28.5793Z" fill="white"/>
</g>
<defs>
<clipPath id="clip0_107_1044">
<rect width="51.2" height="51.2" fill="white" transform="translate(6.40039 6.40002)"/>
</clipPath>
</defs>
</svg>
