<svg width="65" height="64" viewBox="0 0 65 64" fill="none" xmlns="http://www.w3.org/2000/svg">
<rect x="0.5" width="64" height="64" rx="4" fill="#AA00FF"/>
<g clip-path="url(#clip0_107_1261)">
<path d="M33.7661 30.7351C33.3751 30.3441 32.7421 30.3441 32.3511 30.7351C31.9611 31.1251 31.9611 31.7581 32.3511 32.1491C32.7421 32.5391 33.3751 32.5391 33.7661 32.1491C34.1561 31.7581 34.1561 31.1251 33.7661 30.7351Z" fill="white"/>
<path d="M46.4939 18.007C44.5399 16.0531 41.3767 16.053 39.4226 18.007C37.4737 19.9559 37.4736 23.1279 39.4229 25.0784C41.3725 27.0267 44.5445 27.0275 46.4939 25.0782C48.4477 23.1244 48.4481 19.9611 46.4939 18.007ZM45.0797 23.6639C43.9104 24.8333 42.007 24.8333 40.8371 23.6641C39.6676 22.4939 39.6675 20.5905 40.8369 19.4212C42.0092 18.2489 43.9072 18.2487 45.0797 19.4212C46.252 20.5934 46.2522 22.4915 45.0797 23.6639Z" fill="white"/>
<path d="M57.8071 6.69281C57.6107 6.49651 57.3427 6.39011 57.0641 6.40061C56.838 6.40871 51.4545 6.62511 45.055 8.88701C39.927 10.6976 35.6527 13.2899 32.3508 16.5919C31.6109 17.3318 30.8909 18.1164 30.202 18.9315C26.9372 17.0097 24.321 17.6123 22.6671 18.4974C18.859 20.5354 16.502 26.069 16.502 30.027C16.5023 30.4314 16.746 30.7961 17.1196 30.9508C17.2433 31.0021 17.3733 31.027 17.5021 31.027C17.7624 31.027 18.0181 30.9253 18.2094 30.7341C20.2176 28.7258 22.6947 28.8514 23.5039 28.9578L23.8541 29.308C23.1649 30.948 22.6097 32.5788 22.2025 34.1649C22.0555 34.7389 22.1051 35.3463 22.3236 35.9019C21.3608 36.3456 20.4319 36.9971 19.6231 37.8059C17.0491 40.38 16.5264 46.6534 16.5054 46.9192C16.4824 47.2109 16.5882 47.4981 16.7951 47.705C16.9834 47.8932 17.2381 47.9979 17.5021 47.9979C17.5283 47.9979 17.5546 47.9969 17.5809 47.9948C17.8467 47.9739 24.1202 47.4512 26.6943 44.8771C27.5028 44.0686 28.1542 43.1398 28.5979 42.1772C29.1861 42.4085 29.7915 42.437 30.3359 42.2975C31.9213 41.8904 33.5519 41.3354 35.1921 40.6461L35.5423 40.9963C35.6486 41.8056 35.7742 44.2827 33.766 46.2908C33.4801 46.5768 33.3945 47.0069 33.5493 47.3805C33.704 47.7542 34.0686 47.9978 34.4731 47.9978C38.4311 47.9978 43.9646 45.6407 46.0026 41.8326C46.8877 40.1789 47.4903 37.5628 45.5685 34.2979C46.3832 33.6093 47.1679 32.8893 47.9081 32.1491C51.2101 28.8471 53.8023 24.5728 55.6129 19.4452C57.8749 13.0454 58.0912 7.66181 58.0993 7.43581C58.1093 7.15831 58.0034 6.88921 57.8071 6.69281ZM18.7377 27.8761C19.3589 24.8698 21.1632 21.5709 23.6112 20.2607C25.2471 19.3853 27.0352 19.4711 28.9364 20.5118C27.3167 22.642 25.9086 24.937 24.7349 27.3605C24.72 27.3513 24.54 27.125 24.2056 27.0496C24.0681 27.0185 21.4222 26.4494 18.7377 27.8761ZM25.2801 43.4628C23.9051 44.8378 20.6796 45.563 18.6409 45.8591C18.9371 43.8203 19.6624 40.5949 21.0373 39.2201C21.8073 38.4501 22.7001 37.8663 23.5975 37.5375L26.9627 40.9026C26.6339 41.8 26.0502 42.6928 25.2801 43.4628ZM29.8391 40.3601C29.5497 40.4342 29.2145 40.3254 28.9653 40.0766C27.6716 38.783 27.1655 38.2769 27.0067 38.1182C26.7155 37.827 26.0014 37.1129 24.4241 35.5355C24.1747 35.2856 24.0659 34.9505 24.1398 34.6616C24.4601 33.4142 24.879 32.1344 25.3884 30.8423L33.6579 39.1117C32.3656 39.6212 31.086 40.04 29.8391 40.3601ZM44.2395 40.8889C42.9293 43.3368 39.6305 45.1412 36.6243 45.7623C37.5828 43.9586 37.7941 41.6625 37.4439 40.2702C37.3626 39.9469 37.1516 39.7843 37.1398 39.7652C39.5631 38.5915 41.858 37.1834 43.9884 35.5637C45.0291 37.4651 45.1148 39.2533 44.2395 40.8889ZM46.4941 30.7349C45.593 31.6359 44.6227 32.5064 43.6101 33.3221C41.1759 35.2821 38.4967 36.9423 35.6383 38.2639L26.2363 28.8621C27.5579 26.0035 29.2181 23.3243 31.1779 20.8904C31.9943 19.8771 32.8647 18.9067 33.7654 18.0061C36.7279 15.0435 40.5513 12.6857 45.1325 10.9885L53.5117 19.3677C51.8147 23.9488 49.4569 27.7722 46.4941 30.7349ZM54.2312 17.2586L47.2416 10.269C51.0497 9.08621 54.3626 8.64331 56.0162 8.48411C55.8569 10.138 55.4139 13.4509 54.2312 17.2586Z" fill="white"/>
<path d="M30.9374 47.7049C30.5467 47.3144 29.9135 47.3146 29.5231 47.7051L26.6951 50.5341C26.3047 50.9247 26.3048 51.5579 26.6953 51.9483C27.086 52.3387 27.7192 52.3387 28.1096 51.9481L30.9376 49.1191C31.328 48.7285 31.3279 48.0953 30.9374 47.7049Z" fill="white"/>
<path d="M16.796 33.563C16.4056 33.1724 15.7725 33.1724 15.3818 33.5628L12.5528 36.3908C12.1622 36.7812 12.1621 37.4144 12.5525 37.805C12.9428 38.1954 13.5759 38.1958 13.9667 37.8052L16.7957 34.9772C17.1863 34.5868 17.1864 33.9536 16.796 33.563Z" fill="white"/>
<path d="M23.8669 49.12C23.4766 48.7295 22.8433 48.7295 22.4527 49.1199L15.6787 55.8929C15.2881 56.2834 15.2881 56.9166 15.6786 57.3071C16.0689 57.6976 16.7022 57.6978 17.0928 57.3072L23.8668 50.5342C24.2574 50.1437 24.2574 49.5105 23.8669 49.12Z" fill="white"/>
<path d="M15.8669 49.12C15.4765 48.7295 14.8432 48.7295 14.4527 49.1199L7.6787 55.8929C7.2881 56.2834 7.2881 56.9166 7.6786 57.3071C8.0689 57.6976 8.7022 57.6978 9.0928 57.3072L15.8668 50.5342C16.2574 50.1437 16.2574 49.5105 15.8669 49.12Z" fill="white"/>
<path d="M15.3804 40.6336C14.99 40.2432 14.3567 40.2432 13.9662 40.6337L7.19325 47.4077C6.80275 47.7983 6.80275 48.4314 7.19335 48.822C7.58385 49.2125 8.21705 49.2125 8.60755 48.8219L15.3805 42.0479C15.771 41.6573 15.771 41.0242 15.3804 40.6336Z" fill="white"/>
<path d="M38.0089 26.4916C37.6183 26.1011 36.9853 26.1011 36.5946 26.4916L35.1806 27.9056C34.7901 28.2961 34.7901 28.9293 35.1806 29.3199C35.5712 29.7104 36.2043 29.7104 36.5949 29.3199L38.0089 27.9059C38.3994 27.5154 38.3994 26.8822 38.0089 26.4916Z" fill="white"/>
</g>
<defs>
<clipPath id="clip0_107_1261">
<rect width="51.2" height="51.2" fill="white" transform="translate(6.90039 6.3999)"/>
</clipPath>
</defs>
</svg>
