<svg width="64" height="64" viewBox="0 0 64 64" fill="none" xmlns="http://www.w3.org/2000/svg">
<rect width="64" height="64" rx="4" fill="#AA00FF"/>
<g clip-path="url(#clip0_107_1039)">
<path d="M51.1182 13.0583H50.5107C51.6687 11.173 51.2411 8.64195 49.3827 7.26308C47.3802 5.77751 44.5345 6.2557 43.1371 8.34406L39.9825 13.0584H12.8834C10.6559 13.0584 8.84375 14.8705 8.84375 17.098V42.9249C8.84375 45.1523 10.6559 46.9645 12.8834 46.9645H28.5745L27.3889 51.9441H24.83C23.1624 51.9441 21.8056 53.3008 21.8056 54.9684V55.5999H18.6512C18.0989 55.5999 17.6512 56.0477 17.6512 56.5999C17.6512 57.1521 18.0989 57.5999 18.6512 57.5999H45.3505C45.9028 57.5999 46.3505 57.1521 46.3505 56.5999C46.3505 56.0477 45.9028 55.5999 45.3505 55.5999H42.1961V54.9684C42.1961 53.3008 40.8393 51.9441 39.1717 51.9441H36.6128L35.4272 46.9645H51.1183C53.3458 46.9645 55.1579 45.1523 55.1579 42.9249V37.242V17.0979C55.1579 14.8704 53.3458 13.0583 51.1182 13.0583ZM36.7903 30.6378C35.2268 31.7323 32.2978 30.2446 29.5006 31.7372C28.8182 28.1918 29.2485 24.8573 32.8009 24.1213C33.26 24.0256 33.7543 23.9823 34.1751 23.9907C35.3774 24.8828 36.5936 25.7851 37.7926 26.6748C38.3175 28.2016 38.1205 29.7067 36.7903 30.6378ZM37.7981 19.9192L40.6287 22.0194L38.4519 24.6734C37.5557 24.0085 36.7853 23.437 35.8891 22.772C36.0752 22.4939 37.628 20.1733 37.7981 19.9192ZM44.7993 9.45633C45.5567 8.32426 47.1014 8.06086 48.191 8.86935C49.281 9.67793 49.4762 11.2325 48.6125 12.2856C47.08 14.1538 43.4367 18.5959 41.8984 20.4713L38.9115 18.2552L44.7993 9.45633ZM40.196 54.9684V55.5999H23.8056V54.9684C23.8056 54.4037 24.2651 53.9441 24.83 53.9441H39.1716C39.7364 53.9441 40.196 54.4037 40.196 54.9684ZM34.5568 51.9441H29.4447L30.6303 46.9645H33.3713L34.5568 51.9441ZM53.158 42.9249C53.158 44.0496 52.243 44.9645 51.1183 44.9645C49.531 44.9645 14.6682 44.9645 12.8835 44.9645C11.7588 44.9645 10.8438 44.0496 10.8438 42.9249V38.242H13.7014C14.2536 38.242 14.7013 37.7942 14.7013 37.242C14.7013 36.6898 14.2536 36.242 13.7014 36.242H10.8436V17.0979C10.8436 15.9732 11.7586 15.0582 12.8833 15.0582H38.6443C37.6863 16.4899 34.8914 20.6666 34.0062 21.9895C32.0465 22.0072 30.09 22.6899 28.8093 24.185C27.0664 26.2195 26.7602 29.4162 27.8992 33.6864C28.0939 34.4165 29.005 34.6781 29.5562 34.1515C32.1419 31.6809 35.3622 34.3758 38.2461 32.0417C40.0064 30.6167 40.423 28.3514 39.7592 26.233C40.6565 25.139 48.0255 16.1548 48.9249 15.0582H51.1181C52.2428 15.0582 53.1578 15.9732 53.1578 17.0979V36.2419H21.701C21.1487 36.2419 20.701 36.6897 20.701 37.2419C20.701 37.7941 21.1487 38.2419 21.701 38.2419H53.158V42.9249Z" fill="white"/>
<path d="M17.5081 36.2613C17.0267 36.3597 16.7041 36.7758 16.7041 37.2424C16.7041 37.8679 17.276 38.3469 17.8991 38.2224C18.4528 38.11 18.7901 37.5764 18.6841 37.0464C18.5728 36.4994 18.0422 36.1538 17.5081 36.2613Z" fill="white"/>
</g>
<defs>
<clipPath id="clip0_107_1039">
<rect width="51.2" height="51.2" fill="white" transform="translate(6.40039 6.40002)"/>
</clipPath>
</defs>
</svg>
