<svg width="64" height="64" viewBox="0 0 64 64" fill="none" xmlns="http://www.w3.org/2000/svg">
<rect width="64" height="64" rx="4" fill="#AA00FF"/>
<g clip-path="url(#clip0_107_1108)">
<path d="M33.2661 30.735C32.8751 30.344 32.2421 30.344 31.8511 30.735C31.4611 31.125 31.4611 31.758 31.8511 32.149C32.2421 32.539 32.8751 32.539 33.2661 32.149C33.6561 31.758 33.6561 31.125 33.2661 30.735Z" fill="white"/>
<path d="M45.9939 18.007C44.0399 16.0531 40.8767 16.053 38.9226 18.007C36.9737 19.9559 36.9736 23.1279 38.9229 25.0784C40.8725 27.0267 44.0445 27.0275 45.9939 25.0782C47.9477 23.1244 47.9481 19.9611 45.9939 18.007ZM44.5797 23.6639C43.4104 24.8333 41.507 24.8333 40.3371 23.6641C39.1676 22.4939 39.1675 20.5905 40.3369 19.4212C41.5092 18.2489 43.4072 18.2487 44.5797 19.4212C45.752 20.5934 45.7522 22.4915 44.5797 23.6639Z" fill="white"/>
<path d="M57.3071 6.69293C57.1107 6.49663 56.8427 6.39023 56.5641 6.40073C56.338 6.40883 50.9545 6.62523 44.555 8.88713C39.427 10.6977 35.1527 13.29 31.8508 16.592C31.1109 17.3319 30.3909 18.1165 29.702 18.9316C26.4372 17.0098 23.821 17.6124 22.1671 18.4975C18.359 20.5355 16.002 26.0691 16.002 30.0271C16.0023 30.4315 16.246 30.7962 16.6196 30.9509C16.7433 31.0022 16.8733 31.0271 17.0021 31.0271C17.2624 31.0271 17.5181 30.9254 17.7094 30.7342C19.7176 28.7259 22.1947 28.8515 23.0039 28.9579L23.3541 29.3081C22.6649 30.9481 22.1097 32.5789 21.7025 34.165C21.5555 34.739 21.6051 35.3464 21.8236 35.902C20.8608 36.3457 19.9319 36.9972 19.1231 37.806C16.5491 40.3802 16.0264 46.6536 16.0054 46.9194C15.9824 47.2111 16.0882 47.4983 16.2951 47.7052C16.4834 47.8934 16.7381 47.9981 17.0021 47.9981C17.0283 47.9981 17.0546 47.9971 17.0809 47.995C17.3467 47.9741 23.6202 47.4514 26.1943 44.8773C27.0028 44.0688 27.6542 43.14 28.0979 42.1774C28.6861 42.4087 29.2915 42.4372 29.8359 42.2977C31.4213 41.8906 33.0519 41.3356 34.6921 40.6463L35.0423 40.9965C35.1486 41.8058 35.2742 44.2829 33.266 46.291C32.9801 46.577 32.8945 47.0071 33.0493 47.3807C33.204 47.7544 33.5686 47.998 33.9731 47.998C37.9311 47.998 43.4646 45.6409 45.5026 41.8328C46.3877 40.1791 46.9903 37.5629 45.0685 34.298C45.8832 33.6094 46.6679 32.8894 47.4081 32.1492C50.7101 28.8472 53.3023 24.5729 55.1129 19.4453C57.3749 13.0455 57.5912 7.66193 57.5993 7.43593C57.6093 7.15843 57.5034 6.88933 57.3071 6.69293ZM18.2377 27.8762C18.8589 24.8699 20.6632 21.571 23.1112 20.2608C24.7471 19.3854 26.5352 19.4712 28.4364 20.5119C26.8167 22.6421 25.4086 24.9371 24.2349 27.3606C24.22 27.3514 24.04 27.1251 23.7056 27.0497C23.5681 27.0186 20.9222 26.4495 18.2377 27.8762ZM24.7801 43.463C23.4051 44.838 20.1796 45.5632 18.1409 45.8593C18.4371 43.8205 19.1624 40.5951 20.5373 39.2202C21.3073 38.4502 22.2001 37.8664 23.0975 37.5376L26.4627 40.9028C26.1339 41.8002 25.5502 42.693 24.7801 43.463ZM29.3391 40.3603C29.0497 40.4344 28.7145 40.3256 28.4653 40.0768C27.1716 38.7831 26.6655 38.277 26.5067 38.1183C26.2155 37.8271 25.5014 37.113 23.9241 35.5356C23.6747 35.2857 23.5659 34.9506 23.6398 34.6617C23.9601 33.4143 24.379 32.1345 24.8884 30.8424L33.1579 39.1119C31.8656 39.6214 30.586 40.0402 29.3391 40.3603ZM43.7395 40.8891C42.4293 43.337 39.1305 45.1414 36.1243 45.7625C37.0828 43.9588 37.2941 41.6627 36.9439 40.2704C36.8626 39.947 36.6516 39.7844 36.6398 39.7653C39.0631 38.5916 41.358 37.1835 43.4884 35.5638C44.5291 37.4652 44.6148 39.2535 43.7395 40.8891ZM45.9941 30.735C45.093 31.636 44.1227 32.5065 43.1101 33.3222C40.6759 35.2822 37.9967 36.9424 35.1383 38.264L25.7363 28.8622C27.0579 26.0036 28.7181 23.3244 30.6779 20.8905C31.4943 19.8772 32.3647 18.9068 33.2654 18.0062C36.2279 15.0436 40.0513 12.6858 44.6325 10.9886L53.0117 19.3678C51.3147 23.9489 48.9569 27.7723 45.9941 30.735ZM53.7312 17.2587L46.7416 10.2691C50.5497 9.08633 53.8626 8.64343 55.5162 8.48423C55.3569 10.1381 54.9139 13.451 53.7312 17.2587Z" fill="white"/>
<path d="M30.4374 47.7049C30.0467 47.3144 29.4135 47.3146 29.0231 47.7051L26.1951 50.5341C25.8047 50.9247 25.8048 51.5579 26.1953 51.9483C26.586 52.3387 27.2192 52.3387 27.6096 51.9481L30.4376 49.1191C30.828 48.7285 30.8279 48.0953 30.4374 47.7049Z" fill="white"/>
<path d="M16.296 33.5631C15.9056 33.1725 15.2725 33.1725 14.8818 33.5629L12.0528 36.3909C11.6622 36.7813 11.6621 37.4145 12.0525 37.8051C12.4428 38.1955 13.0759 38.1959 13.4667 37.8053L16.2957 34.9773C16.6863 34.5869 16.6864 33.9537 16.296 33.5631Z" fill="white"/>
<path d="M23.3669 49.1199C22.9766 48.7294 22.3433 48.7294 21.9527 49.1198L15.1787 55.8928C14.7881 56.2833 14.7881 56.9165 15.1786 57.307C15.5689 57.6975 16.2022 57.6977 16.5928 57.3071L23.3668 50.5341C23.7574 50.1436 23.7574 49.5104 23.3669 49.1199Z" fill="white"/>
<path d="M15.3669 49.1199C14.9765 48.7294 14.3432 48.7294 13.9527 49.1198L7.1787 55.8928C6.7881 56.2833 6.7881 56.9165 7.1786 57.307C7.5689 57.6975 8.2022 57.6977 8.5928 57.3071L15.3668 50.5341C15.7574 50.1436 15.7574 49.5104 15.3669 49.1199Z" fill="white"/>
<path d="M14.8804 40.6337C14.49 40.2433 13.8567 40.2433 13.4662 40.6338L6.69325 47.4078C6.30275 47.7984 6.30275 48.4315 6.69335 48.8221C7.08385 49.2126 7.71705 49.2126 8.10755 48.822L14.8805 42.048C15.271 41.6574 15.271 41.0243 14.8804 40.6337Z" fill="white"/>
<path d="M37.5089 26.4918C37.1183 26.1013 36.4853 26.1013 36.0946 26.4918L34.6806 27.9058C34.2901 28.2963 34.2901 28.9295 34.6806 29.3201C35.0712 29.7106 35.7043 29.7106 36.0949 29.3201L37.5089 27.9061C37.8994 27.5156 37.8994 26.8824 37.5089 26.4918Z" fill="white"/>
</g>
<defs>
<clipPath id="clip0_107_1108">
<rect width="51.2" height="51.2" fill="white" transform="translate(6.40039 6.40002)"/>
</clipPath>
</defs>
</svg>
