<svg width="64" height="64" viewBox="0 0 64 64" fill="none" xmlns="http://www.w3.org/2000/svg">
<rect width="64" height="64" rx="4" fill="#AA00FF"/>
<g clip-path="url(#clip0_107_1137)">
<path d="M56.6004 7.42493H7.40039C6.84809 7.42493 6.40039 7.87273 6.40039 8.42492V18.7108C6.40039 19.263 6.84809 19.7108 7.40039 19.7108H56.6004C57.1527 19.7108 57.6004 19.263 57.6004 18.7108V8.42492C57.6004 7.87273 57.1527 7.42493 56.6004 7.42493ZM55.6004 17.7108H8.40038V9.42492H55.6004V17.7108Z" fill="white"/>
<path d="M53.341 15.4393L52.5243 14.6226C52.7472 14.1818 52.8659 13.692 52.8659 13.1839C52.8659 12.3306 52.5336 11.5282 51.9302 10.9248C50.6846 9.67926 48.658 9.67916 47.4123 10.9248C46.8089 11.5282 46.4766 12.3306 46.4766 13.1839C46.4766 14.0371 46.809 14.8395 47.4123 15.4428C48.0158 16.0462 48.8181 16.3785 49.6713 16.3785C50.1796 16.3785 50.6693 16.2597 51.1101 16.0369L51.9268 16.8536C52.1221 17.0488 52.378 17.1465 52.6339 17.1465C52.8898 17.1465 53.1458 17.0488 53.341 16.8536C53.7315 16.4631 53.7315 15.8299 53.341 15.4393ZM50.5161 14.0285C50.2905 14.2542 49.9905 14.3785 49.6713 14.3785C49.3522 14.3785 49.0523 14.2542 48.8266 14.0285C48.601 13.8028 48.4766 13.5029 48.4766 13.1839C48.4766 12.8648 48.601 12.5647 48.8266 12.3391C49.0595 12.1062 49.3655 11.9898 49.6713 11.9898C49.9772 11.9898 50.2832 12.1062 50.5161 12.3391C50.7417 12.5648 50.8661 12.8648 50.8661 13.1839C50.8661 13.5029 50.7418 13.8029 50.5161 14.0285Z" fill="white"/>
<path d="M42.2339 15.183C42.2209 15.1189 42.2019 15.0559 42.1769 14.996C42.1519 14.9359 42.1209 14.877 42.0849 14.823C42.0489 14.769 42.0069 14.717 41.9609 14.671C41.9149 14.625 41.8639 14.583 41.8089 14.547C41.7549 14.511 41.6969 14.48 41.6359 14.455C41.5759 14.43 41.5129 14.411 41.4489 14.398C41.3199 14.372 41.1869 14.372 41.0579 14.398C40.9939 14.411 40.9309 14.43 40.8709 14.455C40.8109 14.48 40.7529 14.511 40.6989 14.547C40.6439 14.583 40.5929 14.625 40.5459 14.671C40.4999 14.717 40.4589 14.7689 40.4219 14.823C40.3859 14.877 40.3549 14.936 40.3299 14.996C40.3049 15.056 40.2859 15.1189 40.2729 15.183C40.2599 15.2479 40.2539 15.313 40.2539 15.379C40.2539 15.4439 40.2599 15.509 40.2729 15.574C40.2859 15.638 40.3049 15.701 40.3299 15.7609C40.3549 15.821 40.3859 15.879 40.4219 15.9339C40.4589 15.9879 40.4999 16.0399 40.5459 16.0859C40.5929 16.1319 40.6439 16.174 40.6989 16.2099C40.7529 16.2459 40.8109 16.2769 40.8709 16.3019C40.9319 16.3269 40.9949 16.3459 41.0579 16.3589C41.1229 16.3719 41.1889 16.3779 41.2539 16.3779C41.3189 16.3779 41.3849 16.3718 41.4489 16.3589C41.5129 16.346 41.5759 16.3269 41.6359 16.3019C41.6959 16.2769 41.7549 16.2459 41.8089 16.2099C41.8639 16.174 41.9149 16.1319 41.9609 16.0859C42.1469 15.899 42.2539 15.642 42.2539 15.379C42.2539 15.313 42.2469 15.2479 42.2339 15.183Z" fill="white"/>
<path d="M37.4629 14.3785H16.6797C16.1274 14.3785 15.6797 14.8263 15.6797 15.3785C15.6797 15.9307 16.1274 16.3785 16.6797 16.3785H37.4629C38.0152 16.3785 38.4629 15.9307 38.4629 15.3785C38.4629 14.8263 38.0152 14.3785 37.4629 14.3785Z" fill="white"/>
<path d="M37.8824 21.1364H7.51855C6.96625 21.1364 6.51855 21.5842 6.51855 22.1363V41.8562C6.51855 42.4085 6.96625 42.8562 7.51855 42.8562H37.8824C38.4347 42.8562 38.8824 42.4084 38.8824 41.8562V22.1363C38.8824 21.5842 38.4347 21.1364 37.8824 21.1364ZM18.581 40.8561H10.0929L15.8094 34.2375L19.9494 39.0315L18.581 40.8561ZM21.081 40.8561L22.9456 38.37H27.7945C28.3468 38.37 28.7945 37.9222 28.7945 37.37C28.7945 36.8178 28.3468 36.37 27.7945 36.37H24.4457L25.1473 35.4346H31.4262L35.4926 40.8561H21.081ZM26.6472 33.4346L28.2867 31.2487L29.9262 33.4346H26.6472ZM36.8824 39.3759L29.0867 28.9819C28.8978 28.7301 28.6014 28.5819 28.2867 28.5819C27.972 28.5819 27.6756 28.7301 27.4867 28.9819L21.1777 37.3938L16.5663 32.0538C16.3764 31.8339 16.1001 31.7074 15.8095 31.7074C15.5189 31.7074 15.2427 31.8339 15.0527 32.0538L8.51855 39.6191V23.1363H36.8824V39.3759Z" fill="white"/>
<path d="M20.1652 24.2845C18.2158 24.2845 16.6299 25.8704 16.6299 27.8198C16.6299 29.7692 18.2159 31.3551 20.1652 31.3551C22.1146 31.3551 23.7005 29.7692 23.7005 27.8198C23.7005 25.8704 22.1146 24.2845 20.1652 24.2845ZM20.1652 29.3552C19.3186 29.3552 18.6299 28.6665 18.6299 27.8199C18.6299 26.9733 19.3187 26.2846 20.1652 26.2846C21.0117 26.2846 21.7005 26.9733 21.7005 27.8199C21.7005 28.6665 21.0118 29.3552 20.1652 29.3552Z" fill="white"/>
<path d="M56.6004 21.1364H41.2314C40.6791 21.1364 40.2314 21.5842 40.2314 22.1363V41.8562C40.2314 42.4084 40.6791 42.8562 41.2314 42.8562H56.6004C57.1527 42.8562 57.6004 42.4084 57.6004 41.8562V22.1363C57.6004 21.5842 57.1527 21.1364 56.6004 21.1364ZM55.6004 40.8562H42.2314V23.1363H55.6004V40.8562Z" fill="white"/>
<path d="M53.2719 24.7834H44.5596C44.0073 24.7834 43.5596 25.2312 43.5596 25.7834C43.5596 26.3356 44.0073 26.7834 44.5596 26.7834H53.2719C53.8242 26.7834 54.2719 26.3356 54.2719 25.7834C54.2719 25.2312 53.8242 24.7834 53.2719 24.7834Z" fill="white"/>
<path d="M53.2719 28.7969H44.5596C44.0073 28.7969 43.5596 29.2447 43.5596 29.7969C43.5596 30.3491 44.0073 30.7969 44.5596 30.7969H53.2719C53.8242 30.7969 54.2719 30.3491 54.2719 29.7969C54.2719 29.2447 53.8242 28.7969 53.2719 28.7969Z" fill="white"/>
<path d="M53.2719 32.8102H44.5596C44.0073 32.8102 43.5596 33.258 43.5596 33.8102C43.5596 34.3624 44.0073 34.8102 44.5596 34.8102H53.2719C53.8242 34.8102 54.2719 34.3624 54.2719 33.8102C54.2719 33.258 53.8242 32.8102 53.2719 32.8102Z" fill="white"/>
<path d="M45.5406 37.628C45.5276 37.5639 45.5086 37.5009 45.4836 37.441C45.4586 37.3809 45.4276 37.3229 45.3916 37.268C45.3546 37.214 45.3136 37.162 45.2666 37.116C45.0346 36.884 44.6896 36.7769 44.3646 36.843C44.3006 36.856 44.2376 36.875 44.1776 36.9C44.1176 36.925 44.0596 36.956 44.0046 36.992C43.9506 37.028 43.8986 37.07 43.8526 37.116C43.8066 37.162 43.7646 37.2139 43.7286 37.268C43.6926 37.323 43.6616 37.381 43.6366 37.441C43.6116 37.501 43.5926 37.5639 43.5796 37.628C43.5666 37.6929 43.5596 37.758 43.5596 37.8229C43.5596 37.8889 43.5666 37.954 43.5796 38.0189C43.5926 38.083 43.6116 38.146 43.6366 38.206C43.6616 38.2661 43.6926 38.3241 43.7286 38.379C43.7646 38.433 43.8066 38.485 43.8526 38.531C43.8986 38.577 43.9506 38.619 44.0046 38.655C44.0596 38.691 44.1176 38.722 44.1776 38.747C44.2376 38.772 44.3006 38.791 44.3646 38.804C44.4296 38.817 44.4946 38.824 44.5606 38.824C44.8236 38.824 45.0806 38.717 45.2666 38.5309C45.3126 38.4849 45.3546 38.433 45.3916 38.3789C45.4276 38.3239 45.4586 38.2659 45.4836 38.2059C45.5086 38.1459 45.5276 38.083 45.5406 38.0189C45.5536 37.954 45.5596 37.8889 45.5596 37.8229C45.5596 37.758 45.5536 37.6929 45.5406 37.628Z" fill="white"/>
<path d="M53.272 36.8235H48.3506C47.7983 36.8235 47.3506 37.2713 47.3506 37.8235C47.3506 38.3757 47.7983 38.8235 48.3506 38.8235H53.272C53.8243 38.8235 54.272 38.3757 54.272 37.8235C54.272 37.2713 53.8243 36.8235 53.272 36.8235Z" fill="white"/>
<path d="M22.8875 44.275H7.51855C6.96625 44.275 6.51855 44.7228 6.51855 45.275V55.5752C6.51855 56.1274 6.96625 56.5752 7.51855 56.5752H22.8875C23.4398 56.5752 23.8875 56.1274 23.8875 55.5752V45.275C23.8875 44.7228 23.4398 44.275 22.8875 44.275ZM21.8875 54.5752H8.51855V46.275H21.8875V54.5752Z" fill="white"/>
<path d="M56.6003 44.275H26.373C25.8207 44.275 25.373 44.7228 25.373 45.275V55.5752C25.373 56.1274 25.8207 56.5752 26.373 56.5752H56.6003C57.1526 56.5752 57.6003 56.1274 57.6003 55.5752V45.275C57.6003 44.7228 57.1526 44.275 56.6003 44.275ZM55.6003 54.5752H27.373V46.275H55.6003V54.5752Z" fill="white"/>
<path d="M31.9282 50.23C31.9152 50.1661 31.8962 50.103 31.8712 50.043C31.8462 49.982 31.8152 49.9241 31.7792 49.8701C31.7432 49.815 31.7012 49.764 31.6552 49.718C31.6092 49.672 31.5582 49.63 31.5032 49.594C31.4492 49.5581 31.3912 49.527 31.3302 49.502C31.2702 49.477 31.2072 49.457 31.1432 49.444C31.0142 49.419 30.8812 49.419 30.7522 49.444C30.6892 49.457 30.6262 49.477 30.5652 49.502C30.5052 49.527 30.4472 49.5581 30.3932 49.594C30.3382 49.63 30.2872 49.672 30.2412 49.718C30.1952 49.764 30.1532 49.815 30.1162 49.8701C30.0802 49.9241 30.0492 49.982 30.0242 50.043C29.9992 50.1031 29.9802 50.166 29.9672 50.23C29.9542 50.294 29.9482 50.36 29.9482 50.425C29.9482 50.4899 29.9542 50.556 29.9672 50.62C29.9802 50.6839 29.9992 50.7469 30.0242 50.8079C30.0492 50.8679 30.0802 50.9259 30.1162 50.9799C30.1532 51.0349 30.1952 51.0859 30.2412 51.1319C30.4272 51.3179 30.6852 51.425 30.9482 51.425C31.0132 51.425 31.0792 51.4189 31.1432 51.406C31.2072 51.393 31.2702 51.373 31.3302 51.348C31.3912 51.323 31.4492 51.293 31.5032 51.256C31.5582 51.2201 31.6092 51.1781 31.6552 51.132C31.7012 51.086 31.7432 51.035 31.7792 50.98C31.8152 50.926 31.8462 50.868 31.8712 50.808C31.8962 50.747 31.9152 50.684 31.9282 50.62C31.9412 50.5559 31.9482 50.4899 31.9482 50.425C31.9482 50.36 31.9412 50.2939 31.9282 50.23Z" fill="white"/>
<path d="M51.5322 49.425H34.7393C34.187 49.425 33.7393 49.8728 33.7393 50.425C33.7393 50.9772 34.187 51.425 34.7393 51.425H51.5322C52.0845 51.425 52.5322 50.9772 52.5322 50.425C52.5322 49.8728 52.0845 49.425 51.5322 49.425Z" fill="white"/>
</g>
<defs>
<clipPath id="clip0_107_1137">
<rect width="51.2" height="51.2" fill="white" transform="translate(6.40039 6.40002)"/>
</clipPath>
</defs>
</svg>
