<svg width="64" height="64" viewBox="0 0 64 64" fill="none" xmlns="http://www.w3.org/2000/svg">
<rect width="64" height="64" rx="4" fill="#AA00FF"/>
<g clip-path="url(#clip0_107_1064)">
<path d="M12.2963 25.1547C12.4424 25.3008 12.6342 25.3742 12.826 25.3742C13.0178 25.3742 13.2096 25.3011 13.3561 25.1547C13.6486 24.8621 13.6486 24.3875 13.3561 24.0949L11.5365 22.2754L13.3561 20.4562C13.6486 20.1632 13.6486 19.689 13.3561 19.3964C13.0635 19.1039 12.5889 19.1039 12.2963 19.3964L9.94707 21.7457C9.80645 21.8863 9.72754 22.0769 9.72754 22.2754C9.72754 22.4742 9.80645 22.6648 9.94707 22.8054L12.2963 25.1547Z" fill="white"/>
<path d="M19.7323 22.2754L17.9127 24.0949C17.6202 24.3875 17.6202 24.8621 17.9131 25.1547C18.0592 25.3008 18.251 25.3742 18.4428 25.3742C18.6346 25.3742 18.8264 25.3008 18.9725 25.1547L21.3221 22.8051C21.6147 22.5125 21.6147 22.0379 21.3221 21.7457L18.9725 19.3961C18.6799 19.1035 18.2057 19.1035 17.9131 19.3961C17.6202 19.689 17.6202 20.1633 17.9131 20.4558L19.7323 22.2754Z" fill="white"/>
<path d="M14.5175 25.3223C14.6073 25.3575 14.7003 25.3743 14.7913 25.3743C15.0905 25.3743 15.3729 25.1938 15.4889 24.8989L17.3347 20.2C17.4862 19.8149 17.2964 19.3801 16.9112 19.2285C16.5264 19.0774 16.0913 19.2668 15.9401 19.652L14.094 24.3508C13.9428 24.736 14.1323 25.1711 14.5175 25.3223Z" fill="white"/>
<path d="M10.9016 29.7703H15.9496C16.3633 29.7703 16.6989 29.4348 16.6989 29.0207C16.6989 28.607 16.3633 28.2715 15.9496 28.2715H10.9016C10.4875 28.2715 10.1523 28.607 10.1523 29.0207C10.1523 29.4348 10.4875 29.7703 10.9016 29.7703Z" fill="white"/>
<path d="M27.5754 28.2715H18.7004C18.2867 28.2715 17.9512 28.607 17.9512 29.0207C17.9512 29.4348 18.2867 29.7703 18.7004 29.7703H27.5754C27.9895 29.7703 28.325 29.4348 28.325 29.0207C28.325 28.607 27.9895 28.2715 27.5754 28.2715Z" fill="white"/>
<path d="M10.9016 32.9308H13.052C13.4656 32.9308 13.8012 32.5953 13.8012 32.1812C13.8012 31.7676 13.4656 31.432 13.052 31.432H10.9016C10.4875 31.432 10.1523 31.7676 10.1523 32.1812C10.1523 32.5953 10.4875 32.9308 10.9016 32.9308Z" fill="white"/>
<path d="M24.8342 31.432C24.4201 31.432 24.085 31.7676 24.085 32.1812C24.085 32.5953 24.4201 32.9308 24.8342 32.9308H26.1436C26.5576 32.9308 26.8932 32.5953 26.8932 32.1812C26.8932 31.7676 26.5576 31.432 26.1436 31.432H24.8342Z" fill="white"/>
<path d="M22.8621 32.1812C22.8621 31.7676 22.5266 31.432 22.1129 31.432H15.6809C15.2668 31.432 14.9316 31.7676 14.9316 32.1812C14.9316 32.5953 15.2668 32.9308 15.6809 32.9308H22.1129C22.5266 32.9308 22.8621 32.5953 22.8621 32.1812Z" fill="white"/>
<path d="M27.7705 32.1812C27.7705 32.5953 28.1061 32.9308 28.5197 32.9308H30.9725C31.3865 32.9308 31.7221 32.5953 31.7221 32.1812C31.7221 31.7676 31.3865 31.432 30.9725 31.432H28.5197C28.1061 31.432 27.7705 31.7676 27.7705 32.1812Z" fill="white"/>
<path d="M23.69 22.8765H26.2772C26.6912 22.8765 27.0268 22.541 27.0268 22.1269C27.0268 21.7132 26.6912 21.3777 26.2772 21.3777H23.69C23.276 21.3777 22.9404 21.7132 22.9404 22.1269C22.9404 22.541 23.276 22.8765 23.69 22.8765Z" fill="white"/>
<path d="M29.1744 22.8765H44.96C45.3741 22.8765 45.7092 22.541 45.7092 22.1269C45.7092 21.7132 45.3741 21.3777 44.96 21.3777H29.1744C28.7604 21.3777 28.4248 21.7132 28.4248 22.1269C28.4248 22.541 28.7604 22.8765 29.1744 22.8765Z" fill="white"/>
<path d="M42.5627 24.6746H36.1682C35.7545 24.6746 35.4189 25.0101 35.4189 25.4242C35.4189 25.8378 35.7545 26.1734 36.1682 26.1734H42.5627C42.9764 26.1734 43.3119 25.8378 43.3119 25.4242C43.3119 25.0101 42.9764 24.6746 42.5627 24.6746Z" fill="white"/>
<path d="M33.7705 24.6746H31.5725C31.1584 24.6746 30.8232 25.0101 30.8232 25.4242C30.8232 25.8378 31.1584 26.1734 31.5725 26.1734H33.7705C34.1846 26.1734 34.5197 25.8378 34.5197 25.4242C34.5197 25.0101 34.1846 24.6746 33.7705 24.6746Z" fill="white"/>
<path d="M23.69 26.1734H29.0748C29.4885 26.1734 29.8241 25.8378 29.8241 25.4242C29.8241 25.0101 29.4885 24.6746 29.0748 24.6746H23.69C23.276 24.6746 22.9404 25.0101 22.9404 25.4242C22.9404 25.8378 23.276 26.1734 23.69 26.1734Z" fill="white"/>
<path d="M22.1225 34.566H17.0748C16.6607 34.566 16.3252 34.9016 16.3252 35.3153C16.3252 35.7289 16.6607 36.0645 17.0748 36.0645H22.1225C22.5362 36.0645 22.8717 35.7289 22.8717 35.3153C22.8717 34.9016 22.5362 34.566 22.1225 34.566Z" fill="white"/>
<path d="M14.7797 34.566H10.9016C10.4875 34.566 10.1523 34.9016 10.1523 35.3153C10.1523 35.7289 10.4875 36.0645 10.9016 36.0645H14.7797C15.1938 36.0645 15.5289 35.7289 15.5289 35.3153C15.5289 34.9016 15.1938 34.566 14.7797 34.566Z" fill="white"/>
<path d="M31.2731 34.566H24.6789C24.2648 34.566 23.9297 34.9016 23.9297 35.3153C23.9297 35.7289 24.2648 36.0645 24.6789 36.0645H31.2731C31.6867 36.0645 32.0223 35.7289 32.0223 35.3153C32.0223 34.9016 31.6867 34.566 31.2731 34.566Z" fill="white"/>
<path d="M40.1901 30.7168H36.5842C36.1705 30.7168 35.835 31.0523 35.835 31.466C35.835 31.8801 36.1705 32.2156 36.5842 32.2156H40.1901C40.6041 32.2156 40.9393 31.8801 40.9393 31.466C40.9393 31.0523 40.6041 30.7168 40.1901 30.7168Z" fill="white"/>
<path d="M46.4475 32.2156H51.5377C51.9518 32.2156 52.2873 31.8801 52.2873 31.466C52.2873 31.0523 51.9518 30.7168 51.5377 30.7168H46.4475C46.0334 30.7168 45.6982 31.0523 45.6982 31.466C45.6982 31.8801 46.0338 32.2156 46.4475 32.2156Z" fill="white"/>
<path d="M43.9024 30.7168H42.7359C42.3219 30.7168 41.9863 31.0523 41.9863 31.466C41.9863 31.8801 42.3219 32.2156 42.7359 32.2156H43.9024C44.3164 32.2156 44.6516 31.8801 44.6516 31.466C44.6516 31.0523 44.3164 30.7168 43.9024 30.7168Z" fill="white"/>
<path d="M36.5842 40.3813H40.1901C40.6041 40.3813 40.9393 40.0461 40.9393 39.632C40.9393 39.2184 40.6041 38.8828 40.1901 38.8828H36.5842C36.1705 38.8828 35.835 39.2184 35.835 39.632C35.835 40.0461 36.1705 40.3813 36.5842 40.3813Z" fill="white"/>
<path d="M46.4475 40.3813H51.5377C51.9518 40.3813 52.2873 40.0461 52.2873 39.632C52.2873 39.2184 51.9518 38.8828 51.5377 38.8828H46.4475C46.0334 38.8828 45.6982 39.2184 45.6982 39.632C45.6982 40.0461 46.0338 40.3813 46.4475 40.3813Z" fill="white"/>
<path d="M42.7355 40.3813H43.902C44.316 40.3813 44.6516 40.0461 44.6516 39.632C44.6516 39.2184 44.316 38.8828 43.902 38.8828H42.7355C42.3215 38.8828 41.9863 39.2184 41.9863 39.632C41.9863 40.0461 42.3215 40.3813 42.7355 40.3813Z" fill="white"/>
<path d="M40.1901 47.049H36.5842C36.1705 47.049 35.835 47.3845 35.835 47.7982C35.835 48.2118 36.1705 48.5474 36.5842 48.5474H40.1901C40.6041 48.5474 40.9393 48.2118 40.9393 47.7982C40.9393 47.3845 40.6041 47.049 40.1901 47.049Z" fill="white"/>
<path d="M51.5377 47.049H46.4475C46.0334 47.049 45.6982 47.3845 45.6982 47.7982C45.6982 48.2118 46.0334 48.5474 46.4475 48.5474H51.5377C51.9518 48.5474 52.2873 48.2118 52.2873 47.7982C52.2873 47.3845 51.9518 47.049 51.5377 47.049Z" fill="white"/>
<path d="M43.9024 47.049H42.7359C42.3219 47.049 41.9863 47.3845 41.9863 47.7982C41.9863 48.2118 42.3219 48.5474 42.7359 48.5474H43.9024C44.3164 48.5474 44.6516 48.2118 44.6516 47.7982C44.6516 47.3845 44.3164 47.049 43.9024 47.049Z" fill="white"/>
<path d="M54.3029 6.49988H9.69845C7.88008 6.49988 6.40039 7.97918 6.40039 9.79794V46.0547C6.40039 47.8731 7.88008 49.3524 9.69845 49.3524H12.5184C12.9321 49.3524 13.2676 49.0172 13.2676 48.6032C13.2676 48.1895 12.9321 47.8539 12.5184 47.8539H9.69845C8.70626 47.8539 7.89922 47.0469 7.89922 46.0547V43.2121H35.1989V44.5035H34.6048C33.7919 44.5035 33.131 45.1645 33.131 45.9774V47.8539H17.0743C16.6606 47.8539 16.325 48.1895 16.325 48.6032C16.325 49.0172 16.6606 49.3524 17.0743 49.3524H24.279V52.0399H22.0165C20.5071 52.0399 19.2793 53.268 19.2793 54.777V56.3958C19.2793 57.0845 19.8395 57.6446 20.5282 57.6446H43.4158C44.1044 57.6446 44.6646 57.0845 44.6646 56.3958V54.777C44.6646 53.268 43.4369 52.0399 41.9275 52.0399H39.665V51.0926H53.5178C54.3303 51.0926 54.9912 50.4317 54.9912 49.6188V49.2661C56.4518 48.927 57.5436 47.6164 57.5436 46.0547L57.6002 9.79755C57.6006 7.97918 56.1213 6.49988 54.3029 6.49988ZM34.6298 41.4281V37.8363H53.4928V41.4281H34.6298ZM36.6974 36.3375V34.7609H51.4248V36.3375H36.6974ZM51.4248 42.9266V44.5035H36.6974V42.9266H51.4248ZM25.7774 49.3524H33.131V49.6192C33.131 50.4317 33.7919 51.0926 34.6048 51.0926H38.1665V52.0399H25.7774V49.3524ZM41.9279 53.5387C42.6107 53.5387 43.1662 54.0942 43.1662 54.777V56.1462H20.7778V54.777C20.7778 54.0942 21.3337 53.5387 22.0165 53.5387H41.9279ZM53.4928 49.5938H34.6298V46.0024H53.4928V49.5938ZM56.0451 46.0547C56.0451 46.7805 55.6123 47.4059 54.9916 47.6899V45.977C54.9916 45.1645 54.3303 44.5035 53.5178 44.5035H52.9236V43.2121H56.0451V46.0547ZM56.0451 41.7137H54.967C54.9822 41.6289 54.9916 37.8113 54.9916 37.8113C54.9916 36.9984 54.3303 36.3375 53.5178 36.3375H52.9236V34.7609H53.5178C54.3303 34.7609 54.9916 34.0996 54.9916 33.2871V29.6453C54.9916 28.8328 54.3303 28.1714 53.5178 28.1714H49.2853C48.8713 28.1714 48.5361 28.507 48.5361 28.9211C48.5361 29.3347 48.8713 29.6703 49.2853 29.6703H53.4928V33.2621H34.6298V29.6703H44.6228C45.0369 29.6703 45.372 29.3347 45.372 28.9211C45.372 28.507 45.0369 28.1714 44.6228 28.1714H34.6048C33.7919 28.1714 33.131 28.8328 33.131 29.6453V33.2871C33.131 34.0996 33.7919 34.7609 34.6048 34.7609H35.1989V36.3375H34.6048C33.7919 36.3375 33.131 36.9988 33.131 37.8113C33.131 37.8113 33.1403 41.6289 33.1556 41.7137H7.89922V16.6929H56.0451V41.7137ZM56.0451 15.1941H7.9543V9.79755C7.9543 8.80575 8.76134 7.99871 9.75353 7.99871H54.2459C55.2381 7.99871 56.0451 8.80575 56.0451 9.79794V15.1941Z" fill="white"/>
<path d="M11.9264 9.3761C10.7139 9.3761 9.72754 10.3624 9.72754 11.5749C9.72754 12.7874 10.7139 13.7742 11.9264 13.7742C13.1389 13.7742 14.1256 12.7874 14.1256 11.5749C14.1256 10.3624 13.1389 9.3761 11.9264 9.3761ZM11.9264 12.2753C11.5404 12.2753 11.226 11.9613 11.226 11.5749C11.226 11.189 11.5404 10.8745 11.9264 10.8745C12.3127 10.8745 12.6268 11.189 12.6268 11.5749C12.6268 11.9613 12.3127 12.2753 11.9264 12.2753Z" fill="white"/>
<path d="M17.5254 9.3761C16.3129 9.3761 15.3262 10.3624 15.3262 11.5749C15.3262 12.7874 16.3129 13.7742 17.5254 13.7742C18.7379 13.7742 19.7242 12.7874 19.7242 11.5749C19.7242 10.3624 18.7375 9.3761 17.5254 9.3761ZM17.5254 12.2753C17.1391 12.2753 16.825 11.9613 16.825 11.5749C16.825 11.189 17.1391 10.8745 17.5254 10.8745C17.9113 10.8745 18.2258 11.189 18.2258 11.5749C18.2258 11.9613 17.9113 12.2753 17.5254 12.2753Z" fill="white"/>
<path d="M23.1236 9.3761C21.9111 9.3761 20.9248 10.3624 20.9248 11.5749C20.9248 12.7874 21.9111 13.7742 23.1236 13.7742C24.3361 13.7742 25.3229 12.7874 25.3229 11.5749C25.3229 10.3624 24.3361 9.3761 23.1236 9.3761ZM23.1236 12.2753C22.7377 12.2753 22.4232 11.9613 22.4232 11.5749C22.4232 11.189 22.7377 10.8745 23.1236 10.8745C23.51 10.8745 23.824 11.189 23.824 11.5749C23.824 11.9613 23.51 12.2753 23.1236 12.2753Z" fill="white"/>
</g>
<defs>
<clipPath id="clip0_107_1064">
<rect width="51.2" height="51.2" fill="white" transform="translate(6.40039 6.40002)"/>
</clipPath>
</defs>
</svg>
