<svg width="116" height="14" viewBox="0 0 116 14" fill="none" xmlns="http://www.w3.org/2000/svg">
<path d="M4.712 1.8H6.656L10.728 13H8.968L8.192 10.872H3.176L2.408 13H0.64L4.712 1.8ZM3.792 9.208H7.576L5.68 4.008L3.792 9.208ZM13.8129 3.184V5H16.0689V6.664H13.8129V13H12.1489V6.664H11.1969V5H12.1489V3.184C12.1489 2.74667 12.2555 2.34933 12.4689 1.992C12.6822 1.62933 12.9675 1.34133 13.3249 1.128C13.6875 0.914666 14.0902 0.808 14.5329 0.808C14.8529 0.808 15.1649 0.871999 15.4689 0.999999C15.7729 1.128 16.0449 1.32533 16.2849 1.592L15.0929 2.768C15.0342 2.672 14.9515 2.6 14.8449 2.552C14.7435 2.49867 14.6395 2.472 14.5329 2.472C14.3355 2.472 14.1649 2.54133 14.0209 2.68C13.8822 2.81867 13.8129 2.98667 13.8129 3.184ZM19.5941 3.184V5H21.8501V6.664H19.5941V13H17.9301V6.664H16.9781V5H17.9301V3.184C17.9301 2.74667 18.0368 2.34933 18.2501 1.992C18.4635 1.62933 18.7488 1.34133 19.1061 1.128C19.4688 0.914666 19.8715 0.808 20.3141 0.808C20.6341 0.808 20.9461 0.871999 21.2501 0.999999C21.5541 1.128 21.8261 1.32533 22.0661 1.592L20.8741 2.768C20.8155 2.672 20.7328 2.6 20.6261 2.552C20.5248 2.49867 20.4208 2.472 20.3141 2.472C20.1168 2.472 19.9461 2.54133 19.8021 2.68C19.6635 2.81867 19.5941 2.98667 19.5941 3.184ZM26.4956 13.208C25.7596 13.208 25.0876 13.0187 24.4796 12.64C23.877 12.2613 23.3943 11.7547 23.0316 11.12C22.6743 10.48 22.4956 9.77333 22.4956 9C22.4956 8.41333 22.5996 7.86667 22.8076 7.36C23.0156 6.848 23.301 6.4 23.6636 6.016C24.0316 5.62667 24.4583 5.32267 24.9436 5.104C25.429 4.88533 25.9463 4.776 26.4956 4.776C27.2316 4.776 27.901 4.96533 28.5036 5.344C29.1116 5.72267 29.5943 6.232 29.9516 6.872C30.3143 7.512 30.4956 8.22133 30.4956 9C30.4956 9.58133 30.3916 10.1253 30.1836 10.632C29.9756 11.1387 29.6876 11.5867 29.3196 11.976C28.957 12.36 28.533 12.6613 28.0476 12.88C27.5676 13.0987 27.0503 13.208 26.4956 13.208ZM26.4956 11.544C26.9383 11.544 27.3356 11.4267 27.6876 11.192C28.0396 10.9573 28.317 10.648 28.5196 10.264C28.7276 9.87467 28.8316 9.45333 28.8316 9C28.8316 8.536 28.725 8.10933 28.5116 7.72C28.3036 7.33067 28.0236 7.02133 27.6716 6.792C27.3196 6.55733 26.9276 6.44 26.4956 6.44C26.0583 6.44 25.661 6.55733 25.3036 6.792C24.9516 7.02667 24.6716 7.33867 24.4636 7.728C24.261 8.11733 24.1596 8.54133 24.1596 9C24.1596 9.47467 24.2663 9.904 24.4796 10.288C24.693 10.672 24.9756 10.9787 25.3276 11.208C25.685 11.432 26.0743 11.544 26.4956 11.544ZM31.7881 13V5H33.4521V5.848C33.7295 5.51733 34.0708 5.256 34.4761 5.064C34.8815 4.872 35.3188 4.776 35.7881 4.776C36.0868 4.776 36.3828 4.816 36.6761 4.896L36.0121 6.576C35.8041 6.496 35.5961 6.456 35.3881 6.456C35.0361 6.456 34.7135 6.544 34.4201 6.72C34.1268 6.89067 33.8921 7.12267 33.7161 7.416C33.5401 7.70933 33.4521 8.03467 33.4521 8.392V13H31.7881ZM43.4576 0.999999H45.1216V13H43.4576V11.824C43.1963 12.24 42.855 12.576 42.4336 12.832C42.0123 13.0827 41.519 13.208 40.9536 13.208C40.3723 13.208 39.8283 13.0987 39.3216 12.88C38.815 12.6613 38.367 12.36 37.9776 11.976C37.5936 11.5867 37.2923 11.1387 37.0736 10.632C36.855 10.1253 36.7456 9.58133 36.7456 9C36.7456 8.41867 36.855 7.87467 37.0736 7.368C37.2923 6.856 37.5936 6.408 37.9776 6.024C38.367 5.63467 38.815 5.33067 39.3216 5.112C39.8283 4.89333 40.3723 4.784 40.9536 4.784C41.519 4.784 42.0123 4.912 42.4336 5.168C42.855 5.41867 43.1963 5.74933 43.4576 6.16V0.999999ZM40.9696 11.6C41.439 11.6 41.8496 11.4853 42.2016 11.256C42.5536 11.0213 42.8256 10.7067 43.0176 10.312C43.215 9.91733 43.3136 9.48 43.3136 9C43.3136 8.51467 43.215 8.07467 43.0176 7.68C42.8203 7.28533 42.5456 6.97333 42.1936 6.744C41.847 6.50933 41.439 6.392 40.9696 6.392C40.5056 6.392 40.0816 6.50933 39.6976 6.744C39.319 6.97867 39.015 7.29333 38.7856 7.688C38.5616 8.08267 38.4496 8.52 38.4496 9C38.4496 9.48533 38.5643 9.92533 38.7936 10.32C39.0283 10.7093 39.335 11.0213 39.7136 11.256C40.0976 11.4853 40.5163 11.6 40.9696 11.6ZM53.1528 5H54.8168V13H53.1448L53.0808 11.84C52.8461 12.2507 52.5288 12.5813 52.1288 12.832C51.7288 13.0827 51.2568 13.208 50.7128 13.208C50.1261 13.208 49.5741 13.0987 49.0568 12.88C48.5394 12.656 48.0834 12.3467 47.6888 11.952C47.2994 11.5573 46.9954 11.104 46.7768 10.592C46.5581 10.0747 46.4488 9.52 46.4488 8.928C46.4488 8.35733 46.5554 7.82133 46.7688 7.32C46.9821 6.81333 47.2781 6.37067 47.6568 5.992C48.0354 5.61333 48.4728 5.31733 48.9688 5.104C49.4701 4.88533 50.0061 4.776 50.5768 4.776C51.1581 4.776 51.6701 4.90933 52.1128 5.176C52.5608 5.43733 52.9314 5.77333 53.2248 6.184L53.1528 5ZM50.6727 11.6C51.1421 11.6 51.5528 11.4853 51.9048 11.256C52.2568 11.0213 52.5288 10.7067 52.7208 10.312C52.9181 9.91733 53.0168 9.48 53.0168 9C53.0168 8.51467 52.9181 8.07467 52.7208 7.68C52.5234 7.28533 52.2488 6.97333 51.8968 6.744C51.5501 6.50933 51.1421 6.392 50.6727 6.392C50.2088 6.392 49.7848 6.50933 49.4008 6.744C49.0168 6.97867 48.7128 7.29333 48.4888 7.688C48.2648 8.08267 48.1528 8.52 48.1528 9C48.1528 9.48533 48.2674 9.92533 48.4968 10.32C48.7314 10.7093 49.0381 11.0213 49.4168 11.256C49.8008 11.4853 50.2194 11.6 50.6727 11.6ZM60.6356 4.776C61.4143 4.776 62.121 4.96533 62.7556 5.344C63.3956 5.72267 63.905 6.232 64.2836 6.872C64.6623 7.50667 64.8516 8.21333 64.8516 8.992C64.8516 9.57333 64.7423 10.12 64.5236 10.632C64.305 11.1387 64.001 11.5867 63.6116 11.976C63.2276 12.36 62.7796 12.6613 62.2676 12.88C61.761 13.0987 61.217 13.208 60.6356 13.208C60.0756 13.208 59.585 13.08 59.1636 12.824C58.7476 12.5627 58.4063 12.2293 58.1396 11.824V13H56.4756V0.999999H58.1396V6.16C58.4063 5.74933 58.7476 5.416 59.1636 5.16C59.585 4.904 60.0756 4.776 60.6356 4.776ZM60.6196 11.592C61.0836 11.592 61.5076 11.4747 61.8916 11.24C62.2756 11.0053 62.5796 10.6907 62.8036 10.296C63.033 9.90133 63.1476 9.46667 63.1476 8.992C63.1476 8.50667 63.033 8.06667 62.8036 7.672C62.5743 7.27733 62.2676 6.96533 61.8836 6.736C61.4996 6.50133 61.0783 6.384 60.6196 6.384C60.1556 6.384 59.7476 6.50133 59.3956 6.736C59.0436 6.97067 58.769 7.28533 58.5716 7.68C58.3743 8.07467 58.2756 8.512 58.2756 8.992C58.2756 9.472 58.3743 9.90933 58.5716 10.304C58.769 10.6987 59.0436 11.0133 59.3956 11.248C59.7476 11.4773 60.1556 11.592 60.6196 11.592ZM66.0381 13V0.999999H67.7021V13H66.0381ZM73.0269 13.208C72.2909 13.208 71.6189 13.0187 71.0109 12.64C70.4082 12.2613 69.9255 11.7547 69.5629 11.12C69.2055 10.48 69.0269 9.77333 69.0269 9C69.0269 8.41333 69.1309 7.86667 69.3389 7.36C69.5469 6.848 69.8322 6.4 70.1949 6.016C70.5629 5.62667 70.9895 5.32267 71.4749 5.104C71.9602 4.88533 72.4775 4.776 73.0269 4.776C73.6402 4.776 74.2029 4.904 74.7149 5.16C75.2269 5.41067 75.6642 5.76 76.0269 6.208C76.3895 6.65067 76.6562 7.16267 76.8269 7.744C76.9975 8.32 77.0482 8.93333 76.9789 9.584H70.8109C70.8802 9.952 71.0135 10.2853 71.2109 10.584C71.4135 10.8773 71.6695 11.1093 71.9789 11.28C72.2935 11.4507 72.6429 11.5387 73.0269 11.544C73.4322 11.544 73.8002 11.4427 74.1309 11.24C74.4669 11.0373 74.7415 10.7573 74.9549 10.4L76.6429 10.792C76.3229 11.5013 75.8402 12.0827 75.1949 12.536C74.5495 12.984 73.8269 13.208 73.0269 13.208ZM70.7549 8.312H75.2989C75.2455 7.928 75.1095 7.58133 74.8909 7.272C74.6775 6.95733 74.4082 6.70933 74.0829 6.528C73.7629 6.34133 73.4109 6.248 73.0269 6.248C72.6482 6.248 72.2962 6.33867 71.9709 6.52C71.6509 6.70133 71.3842 6.94933 71.1709 7.264C70.9629 7.57333 70.8242 7.92267 70.7549 8.312ZM82.2881 13V1.8H86.1441C86.7468 1.8 87.2908 1.94933 87.7761 2.248C88.2668 2.54667 88.6561 2.94933 88.9441 3.456C89.2375 3.96267 89.3841 4.52267 89.3841 5.136C89.3841 5.76 89.2348 6.32533 88.9361 6.832C88.6428 7.33333 88.2508 7.73333 87.7601 8.032C87.2695 8.33067 86.7308 8.48 86.1441 8.48H83.9521V13H82.2881ZM83.9521 6.816H85.9761C86.2961 6.816 86.5868 6.736 86.8481 6.576C87.1148 6.416 87.3255 6.20267 87.4801 5.936C87.6401 5.66933 87.7201 5.368 87.7201 5.032C87.7201 4.696 87.6401 4.39467 87.4801 4.128C87.3255 3.856 87.1148 3.64267 86.8481 3.488C86.5868 3.328 86.2961 3.248 85.9761 3.248H83.9521V6.816ZM90.6944 13V5H92.3584V5.848C92.6357 5.51733 92.977 5.256 93.3824 5.064C93.7877 4.872 94.225 4.776 94.6944 4.776C94.993 4.776 95.289 4.816 95.5824 4.896L94.9184 6.576C94.7104 6.496 94.5024 6.456 94.2944 6.456C93.9424 6.456 93.6197 6.544 93.3264 6.72C93.033 6.89067 92.7984 7.12267 92.6224 7.416C92.4464 7.70933 92.3584 8.03467 92.3584 8.392V13H90.6944ZM96.5069 5H98.1709V13H96.5069V5ZM97.3549 3.84C97.0989 3.84 96.8855 3.75733 96.7149 3.592C96.5442 3.42667 96.4589 3.21867 96.4589 2.968C96.4589 2.72267 96.5442 2.51733 96.7149 2.352C96.8855 2.18133 97.0962 2.096 97.3469 2.096C97.5922 2.096 97.8002 2.18133 97.9709 2.352C98.1415 2.51733 98.2269 2.72267 98.2269 2.968C98.2269 3.21867 98.1415 3.42667 97.9709 3.592C97.8055 3.75733 97.6002 3.84 97.3549 3.84ZM105.168 10.728L106.656 11.536C106.294 12.0427 105.832 12.448 105.272 12.752C104.718 13.056 104.115 13.208 103.464 13.208C102.728 13.208 102.056 13.0187 101.448 12.64C100.846 12.2613 100.363 11.7547 100 11.12C99.643 10.48 99.4644 9.77333 99.4644 9C99.4644 8.41333 99.5684 7.86667 99.7764 7.36C99.9844 6.848 100.27 6.4 100.632 6.016C101 5.62667 101.427 5.32267 101.912 5.104C102.398 4.88533 102.915 4.776 103.464 4.776C104.115 4.776 104.718 4.928 105.272 5.232C105.832 5.536 106.294 5.944 106.656 6.456L105.168 7.264C104.944 6.99733 104.683 6.79467 104.384 6.656C104.086 6.512 103.779 6.44 103.464 6.44C103.027 6.44 102.63 6.56 102.272 6.8C101.92 7.03467 101.64 7.34667 101.432 7.736C101.23 8.12 101.128 8.54133 101.128 9C101.128 9.45333 101.232 9.87467 101.44 10.264C101.648 10.648 101.928 10.9573 102.28 11.192C102.638 11.4267 103.032 11.544 103.464 11.544C103.795 11.544 104.11 11.4693 104.408 11.32C104.707 11.1707 104.96 10.9733 105.168 10.728ZM111.418 13.208C110.682 13.208 110.01 13.0187 109.402 12.64C108.799 12.2613 108.316 11.7547 107.954 11.12C107.596 10.48 107.418 9.77333 107.418 9C107.418 8.41333 107.522 7.86667 107.73 7.36C107.938 6.848 108.223 6.4 108.586 6.016C108.954 5.62667 109.38 5.32267 109.866 5.104C110.351 4.88533 110.868 4.776 111.418 4.776C112.031 4.776 112.594 4.904 113.106 5.16C113.618 5.41067 114.055 5.76 114.418 6.208C114.78 6.65067 115.047 7.16267 115.218 7.744C115.388 8.32 115.439 8.93333 115.37 9.584H109.202C109.271 9.952 109.404 10.2853 109.602 10.584C109.804 10.8773 110.06 11.1093 110.37 11.28C110.684 11.4507 111.034 11.5387 111.418 11.544C111.823 11.544 112.191 11.4427 112.522 11.24C112.858 11.0373 113.132 10.7573 113.346 10.4L115.034 10.792C114.714 11.5013 114.231 12.0827 113.586 12.536C112.94 12.984 112.218 13.208 111.418 13.208ZM109.146 8.312H113.69C113.636 7.928 113.5 7.58133 113.282 7.272C113.068 6.95733 112.799 6.70933 112.474 6.528C112.154 6.34133 111.802 6.248 111.418 6.248C111.039 6.248 110.687 6.33867 110.362 6.52C110.042 6.70133 109.775 6.94933 109.562 7.264C109.354 7.57333 109.215 7.92267 109.146 8.312Z" fill="#262626"/>
</svg>
