<svg width="40" height="40" viewBox="0 0 40 40" fill="none" xmlns="http://www.w3.org/2000/svg">
<rect width="40" height="40" rx="4" fill="#AA00FF"/>
<g clip-path="url(#clip0_107_769)">
<path d="M19.9986 9.68994C14.3136 9.68994 9.68848 14.315 9.68848 20C9.68848 25.685 14.3136 30.3101 19.9986 30.3101C25.6835 30.3101 30.3086 25.685 30.3086 20C30.3086 14.315 25.6836 9.68994 19.9986 9.68994ZM19.9986 28.4355C15.3472 28.4355 11.563 24.6514 11.563 20C11.563 15.3487 15.3472 11.5645 19.9986 11.5645C24.6499 11.5645 28.4341 15.3487 28.4341 20C28.4341 24.6514 24.65 28.4355 19.9986 28.4355Z" fill="white"/>
<path d="M24.0224 16.5255L19.0614 21.4864L15.975 18.4001C15.6091 18.034 15.0156 18.034 14.6495 18.4001C14.2835 18.7661 14.2835 19.3595 14.6495 19.7256L18.3987 23.4747C18.5817 23.6577 18.8216 23.7493 19.0614 23.7493C19.3012 23.7493 19.5411 23.6578 19.7241 23.4747L25.3478 17.851C25.7138 17.485 25.7138 16.8915 25.3478 16.5255C24.9819 16.1595 24.3884 16.1595 24.0224 16.5255Z" fill="white"/>
<path d="M34.6579 13.4285C34.6547 13.4266 31.3843 11.4689 31.3843 11.4689L30.6501 8.42849C30.3244 7.07937 29.0839 6.17764 27.6999 6.28499L23.973 6.57342C23.973 6.57342 21.8262 4.67874 21.8219 4.67518C20.7654 3.77527 19.2317 3.77527 18.1752 4.67518C18.171 4.67874 16.0242 6.57342 16.0242 6.57342L12.2973 6.28499C10.9244 6.17839 9.69341 7.06437 9.35536 8.39487L8.33335 11.6514C8.33335 11.6514 5.34611 13.4261 5.34218 13.4285C4.15977 14.1552 3.68581 15.6138 4.21531 16.8968L5.49052 19.987L4.21531 23.0771C3.68581 24.3601 4.15977 25.8187 5.34224 26.5454C5.34586 26.5476 8.60997 28.4925 8.60997 28.4925L9.34717 31.5454C9.65535 32.8219 10.7825 33.6976 12.075 33.6975C12.2727 33.6975 12.0507 33.705 15.9855 33.4034C15.9855 33.4034 18.1718 35.322 18.1753 35.3249C18.7035 35.7749 19.3511 35.9999 19.9987 35.9999C20.6462 35.9999 21.2938 35.7749 21.8221 35.3249C21.8256 35.3219 24.0119 33.4034 24.0119 33.4034L27.6999 33.6889C29.0835 33.7958 30.3245 32.8945 30.6502 31.5454L31.3843 28.5049C35.3863 26.1093 34.5378 26.6195 34.6579 26.5453C35.8403 25.8186 36.3142 24.36 35.7847 23.0771L34.5095 19.9868L35.7847 16.8966C36.3142 15.6138 35.8403 14.1553 34.6579 13.4285ZM32.6291 20.3445L34.0519 23.7923C34.2278 24.2185 34.0714 24.703 33.6801 24.9461L30.0841 27.0986C29.8683 27.2278 29.7135 27.4383 29.6544 27.6828L28.8279 31.1055C28.7194 31.5552 28.3065 31.8556 27.8445 31.82L23.7627 31.5041C23.5114 31.4846 23.262 31.5675 23.0722 31.7341L20.602 33.9018C20.2514 34.1968 19.7458 34.1968 19.3952 33.9016L16.9251 31.7341C16.7353 31.5675 16.4859 31.4845 16.2346 31.5041L12.1528 31.82C11.6913 31.8556 11.278 31.5552 11.1694 31.1055L10.3397 27.6692C10.2805 27.4241 10.125 27.2131 9.90836 27.0841L6.31926 24.9455C5.92848 24.7023 5.77239 24.2182 5.94822 23.7922L7.37101 20.3444C7.46555 20.1154 7.46555 19.8584 7.37101 19.6294L5.94803 16.1816C5.77233 15.7558 5.92823 15.272 6.31857 15.0287L9.59905 13.0798C9.79751 12.9619 9.94547 12.775 10.0146 12.5547C11.2235 8.70017 11.1553 8.92643 11.1693 8.86838C11.2778 8.41874 11.69 8.11794 12.1527 8.15393L16.2749 8.47298C16.5278 8.49247 16.7774 8.40887 16.9674 8.24122L19.3961 6.09772C19.7462 5.80367 20.2508 5.80367 20.601 6.0976L23.0298 8.24122C23.2198 8.40899 23.47 8.49247 23.7223 8.47298L27.8445 8.15393C28.3055 8.11831 28.7193 8.41868 28.8279 8.86845L29.6544 12.2911C29.7134 12.5357 29.8682 12.7462 30.0841 12.8754L33.68 15.0279C34.0714 15.2709 34.2278 15.7553 34.0518 16.1816L32.629 19.6294C32.5346 19.8584 32.5346 20.1155 32.6291 20.3445Z" fill="white"/>
</g>
<defs>
<clipPath id="clip0_107_769">
<rect width="32" height="32" fill="white" transform="translate(4 4)"/>
</clipPath>
</defs>
</svg>
