<svg width="40" height="40" viewBox="0 0 40 40" fill="none" xmlns="http://www.w3.org/2000/svg">
<rect width="40" height="40" rx="4" fill="#AA00FF"/>
<path d="M32 10H19.858C19.4107 8.27975 17.8583 7 16 7C14.1417 7 12.5893 8.27975 12.142 10H8C7.44775 10 7 10.4477 7 11C7 11.5523 7.44775 12 8 12H12.142C12.5893 13.7203 14.1417 15 16 15C17.8583 15 19.4107 13.7203 19.858 12H32C32.5523 12 33 11.5523 33 11C33 10.4477 32.5523 10 32 10ZM16 13C14.897 13 14 12.103 14 11C14 9.897 14.897 9 16 9C17.103 9 18 9.897 18 11C18 12.103 17.103 13 16 13ZM32 19H27.858C27.4107 17.2797 25.8583 16 24 16C22.1417 16 20.5893 17.2797 20.142 19H8C7.44775 19 7 19.4477 7 20C7 20.5523 7.44775 21 8 21H20.142C20.5893 22.7203 22.1417 24 24 24C25.8583 24 27.4107 22.7203 27.858 21H32C32.5523 21 33 20.5523 33 20C33 19.4477 32.5523 19 32 19ZM24 22C22.897 22 22 21.103 22 20C22 18.897 22.897 18 24 18C25.103 18 26 18.897 26 20C26 21.103 25.103 22 24 22ZM32 28H19.858C19.4107 26.2797 17.8583 25 16 25C14.1417 25 12.5893 26.2797 12.142 28H8C7.44775 28 7 28.4477 7 29C7 29.5523 7.44775 30 8 30H12.142C12.5893 31.7203 14.1417 33 16 33C17.8583 33 19.4107 31.7203 19.858 30H32C32.5523 30 33 29.5523 33 29C33 28.4477 32.5523 28 32 28ZM16 31C14.897 31 14 30.103 14 29C14 27.897 14.897 27 16 27C17.103 27 18 27.897 18 29C18 30.103 17.103 31 16 31Z" fill="white"/>
</svg>
