<svg width="40" height="40" viewBox="0 0 40 40" fill="none" xmlns="http://www.w3.org/2000/svg">
<rect width="40" height="40" rx="4" fill="#AA00FF"/>
<g clip-path="url(#clip0_107_413)">
<path d="M35.4618 31.7267H34.3953V30.6602H33.3288V31.7267H32.2623V30.6602H31.1958V31.7267H23.26C22.6909 31.7238 22.1698 32.0451 21.9173 32.5549C21.8452 32.7015 21.6952 32.7942 21.5317 32.7932H18.4608C18.297 32.7942 18.1473 32.7015 18.0752 32.5549C17.8229 32.0459 17.3031 31.7246 16.735 31.7267H8.79926V22.1282H7.73276V31.7267H6.66625V22.1282H5.59975V31.7267H4.53325C4.23877 31.7267 4 31.9655 4 32.2599V33.8597C4 35.0376 4.95506 35.9927 6.133 35.9927H33.862C35.04 35.9927 35.995 35.0376 35.995 33.8597V32.2599C35.995 31.9655 35.7563 31.7267 35.4618 31.7267ZM34.9285 33.8597C34.9285 34.4487 34.451 34.9262 33.862 34.9262H6.133C5.54403 34.9262 5.0665 34.4487 5.0665 33.8597V32.7932H16.735C16.8988 32.7921 17.0485 32.8848 17.1206 33.0314C17.3729 33.5405 17.8926 33.8618 18.4608 33.8597H21.5343C22.1034 33.8628 22.6245 33.5413 22.877 33.0314C22.9489 32.8856 23.0973 32.7932 23.26 32.7932H34.9285V33.8597Z" fill="white"/>
<path d="M17.8644 12.5296V11.4631H8.26586C6.79396 11.465 5.60143 12.6575 5.59961 14.1294V14.6626H6.66611V14.1294C6.66611 13.2459 7.38241 12.5296 8.26586 12.5296H17.8644Z" fill="white"/>
<path d="M7.73242 14.6624H18.9307V13.5959H8.79892C8.20995 13.5959 7.73242 14.0735 7.73242 14.6624Z" fill="white"/>
<path d="M34.2549 10.7096L34.8949 8.69242C34.9405 8.54947 34.9238 8.39377 34.8491 8.26384C34.7741 8.13391 34.6478 8.04148 34.5015 8.00919L32.4328 7.55692L31.9829 5.49057C31.9511 5.34424 31.8595 5.2177 31.7298 5.14245C31.6001 5.06694 31.4449 5.0495 31.302 5.09454L29.2846 5.73429L27.8564 4.17151C27.7531 4.06501 27.6109 4.00513 27.4625 4.00513C27.3141 4.00513 27.1719 4.06501 27.0685 4.17151L25.6424 5.73715L23.623 5.09454C23.48 5.04872 23.3246 5.06564 23.1944 5.14063C23.0645 5.21562 22.972 5.3419 22.94 5.48849L22.4877 7.55692L20.4235 8.00919C20.2769 8.04122 20.1506 8.13365 20.0756 8.26358C20.0006 8.39377 19.984 8.54921 20.0295 8.69242L20.6695 10.7096L19.1039 12.1356C18.993 12.2367 18.9297 12.3796 18.9297 12.5296C18.9297 12.6796 18.993 12.8225 19.1039 12.9235L20.6695 14.3496L20.0295 16.3668C19.984 16.51 20.0006 16.6654 20.0756 16.7956C20.1506 16.9255 20.2769 17.018 20.4235 17.05L22.4922 17.5023L22.9442 19.5707C22.9762 19.7173 23.0686 19.8436 23.1988 19.9185C23.3287 19.9935 23.4845 20.0105 23.6274 19.9646L25.6445 19.322L27.0706 20.8877C27.1716 20.9986 27.3146 21.0619 27.4646 21.0619C27.6145 21.0619 27.7577 20.9986 27.8588 20.8877L29.2846 19.322L31.302 19.9646C31.4449 20.0105 31.6004 19.9935 31.7306 19.9185C31.8605 19.8436 31.9529 19.7173 31.985 19.5707L32.4372 17.5023L34.5057 17.05C34.6523 17.018 34.7785 16.9255 34.8535 16.7956C34.9285 16.6654 34.9454 16.51 34.8996 16.3668L34.2599 14.3496L35.8255 12.9235C35.9362 12.8225 35.9994 12.6796 35.9994 12.5296C35.9994 12.3796 35.9362 12.2367 35.8255 12.1356L34.2549 10.7096ZM33.284 13.7914C33.1301 13.9317 33.0718 14.1489 33.1353 14.3475L33.7016 16.1332L31.8709 16.5337C31.6678 16.5784 31.5092 16.737 31.4645 16.9401L31.0661 18.7687L29.2804 18.2001C29.0818 18.1376 28.8649 18.1956 28.7243 18.349L27.4625 19.7365L26.2007 18.35C26.0997 18.2391 25.9567 18.1761 25.8067 18.1761C25.7523 18.1764 25.6984 18.1847 25.6469 18.2014L23.8589 18.7687L23.4584 16.938C23.4136 16.7349 23.2551 16.5764 23.052 16.5316L21.2233 16.1332L21.792 14.3475C21.8553 14.1489 21.7972 13.9317 21.6431 13.7914L20.2555 12.5296L21.642 11.2678C21.7962 11.1275 21.8542 10.9103 21.7907 10.7116L21.2233 8.92598L23.054 8.52552C23.2571 8.48074 23.4157 8.32217 23.4605 8.11907L23.8589 6.29045L25.6445 6.85911C25.8432 6.92238 26.0604 6.86432 26.2007 6.71018L27.4625 5.32263L28.7243 6.70913C28.8646 6.86328 29.0818 6.92134 29.2804 6.85781L31.0661 6.29045L31.4665 8.12116C31.5113 8.32425 31.6699 8.48282 31.873 8.5276L33.7037 8.92806L33.1353 10.714C33.0718 10.9124 33.1301 11.1295 33.284 11.2701L34.6694 12.5296L33.284 13.7914Z" fill="white"/>
<path d="M24.4199 14.8188L29.7522 9.48633L30.5065 10.2404L25.174 15.5729L24.4199 14.8188Z" fill="white"/>
<path d="M26.3968 10.9298C26.3968 10.0464 25.6805 9.33008 24.797 9.33008C23.9136 9.33008 23.1973 10.0464 23.1973 10.9298C23.1973 11.8133 23.9136 12.5296 24.797 12.5296C25.6805 12.5296 26.3968 11.8133 26.3968 10.9298ZM24.2638 10.9298C24.2638 10.6353 24.5025 10.3966 24.797 10.3966C25.0915 10.3966 25.3303 10.6353 25.3303 10.9298C25.3303 11.2243 25.0915 11.4631 24.797 11.4631C24.5025 11.4631 24.2638 11.2243 24.2638 10.9298Z" fill="white"/>
<path d="M30.129 12.5295C29.2456 12.5295 28.5293 13.2458 28.5293 14.1293C28.5293 15.0128 29.2456 15.729 30.129 15.729C31.0125 15.729 31.7288 15.0128 31.7288 14.1293C31.7288 13.2458 31.0125 12.5295 30.129 12.5295ZM30.129 14.6625C29.8346 14.6625 29.5958 14.4238 29.5958 14.1293C29.5958 13.8348 29.8346 13.596 30.129 13.596C30.4235 13.596 30.6623 13.8348 30.6623 14.1293C30.6623 14.4238 30.4235 14.6625 30.129 14.6625Z" fill="white"/>
<path d="M17.8449 18.2711C17.6665 18.2284 17.4785 18.2813 17.3486 18.4107L12.1439 23.5614L10.8785 24.3145C10.0385 24.8029 9.65941 25.8158 9.97212 26.736C10.2169 27.4819 10.8709 28.0191 11.6502 28.1149L12.761 30.3625C12.8511 30.545 13.0373 30.6604 13.2409 30.6596H15.3387C15.5187 30.6598 15.6866 30.5692 15.7853 30.4187C15.884 30.2682 15.9001 30.0779 15.8282 29.9131L14.7243 27.3645L20.5213 27.4606H20.5304C20.7028 27.4606 20.8644 27.3773 20.9644 27.2369C21.0644 27.0966 21.0905 26.9164 21.0342 26.7534L18.2279 18.6161C18.168 18.443 18.0235 18.3128 17.8449 18.2711ZM10.9852 26.3941C10.8353 25.9509 11.0183 25.4638 11.4229 25.2289L12.2559 24.7347L13.1886 26.5792L12.3988 26.97C12.134 27.1015 11.825 27.1114 11.5521 26.9976C11.2839 26.8891 11.0766 26.6685 10.9852 26.3941ZM13.5726 29.5936L12.7662 27.9649C12.7998 27.9501 12.836 27.9444 12.8696 27.9277L13.6387 27.547L14.5248 29.5936H13.5726ZM14.2381 26.2923L13.1268 24.0921L17.4993 19.7652L19.7813 26.3818L14.2381 26.2923Z" fill="white"/>
<path d="M20.6152 22.264L22.3788 21.6511L22.7284 22.658L20.9652 23.2709L20.6152 22.264Z" fill="white"/>
<path d="M19.2305 18.719L20.4066 17.4932L21.1763 18.2316L19.9999 19.4574L19.2305 18.719Z" fill="white"/>
<path d="M22.1309 25.8608H23.7306V26.9273H22.1309V25.8608Z" fill="white"/>
<path d="M35.4619 22.128H34.3954V18.3953H33.3289V22.128H32.2624V21.0615H31.1959V22.128H25.3301C25.0356 22.128 24.7969 22.3668 24.7969 22.6613V29.0603C24.7969 29.3548 25.0356 29.5935 25.3301 29.5935H35.4619C35.7564 29.5935 35.9951 29.3548 35.9951 29.0603V22.6613C35.9951 22.3668 35.7564 22.128 35.4619 22.128ZM34.9286 28.527H25.8634V23.1945H34.9286V28.527Z" fill="white"/>
<path d="M26.9297 24.261H29.0627V25.3275H26.9297V24.261Z" fill="white"/>
<path d="M30.1289 24.261H33.8617V25.3275H30.1289V24.261Z" fill="white"/>
<path d="M26.9297 26.394H33.8619V27.4605H26.9297V26.394Z" fill="white"/>
<path d="M4.53325 21.0615H12.532C12.8265 21.0615 13.0653 20.8227 13.0653 20.5283V16.2623C13.0653 15.9678 12.8265 15.729 12.532 15.729H4.53325C4.23877 15.729 4 15.9678 4 16.2623V20.5283C4 20.8227 4.23877 21.0615 4.53325 21.0615ZM5.0665 16.7955H11.9988V19.995H5.0665V16.7955Z" fill="white"/>
<path d="M6.13281 17.8621H7.19931V18.9286H6.13281V17.8621Z" fill="white"/>
<path d="M8.26562 17.8621H10.9319V18.9286H8.26562V17.8621Z" fill="white"/>
</g>
<defs>
<clipPath id="clip0_107_413">
<rect width="32" height="32" fill="white" transform="translate(4 4)"/>
</clipPath>
</defs>
</svg>
