<svg width="40" height="40" viewBox="0 0 40 40" fill="none" xmlns="http://www.w3.org/2000/svg">
<rect width="40" height="40" rx="4" fill="#AA00FF"/>
<g clip-path="url(#clip0_107_734)">
<path d="M20.7918 19.2094C20.5474 18.965 20.1518 18.965 19.9074 19.2094C19.6637 19.4532 19.6637 19.8488 19.9074 20.0932C20.1518 20.3369 20.5474 20.3369 20.7918 20.0932C21.0355 19.8488 21.0355 19.4532 20.7918 19.2094Z" fill="white"/>
<path d="M28.7462 11.2543C27.5249 10.0331 25.5479 10.033 24.3266 11.2543C23.1086 12.4724 23.1085 14.4548 24.3268 15.6739C25.5453 16.8917 27.5278 16.8922 28.7462 15.6738C29.9673 14.4527 29.9676 12.4756 28.7462 11.2543ZM27.8623 14.7898C27.1315 15.5207 25.9419 15.5207 25.2107 14.79C24.4798 14.0586 24.4797 12.869 25.2106 12.1382C25.9433 11.4055 27.1295 11.4054 27.8623 12.1382C28.595 12.8708 28.5951 14.0571 27.8623 14.7898Z" fill="white"/>
<path d="M35.8167 4.18307C35.6939 4.06038 35.5264 3.99388 35.3523 4.00044C35.211 4.00551 31.8463 4.14076 27.8466 5.55444C24.6416 6.68606 21.9702 8.30625 19.9065 10.37C19.4441 10.8324 18.9941 11.3228 18.5635 11.8322C16.523 10.6311 14.8879 11.0077 13.8542 11.5609C11.4742 12.8347 10.001 16.2932 10.001 18.7669C10.0012 19.0197 10.1535 19.2476 10.387 19.3443C10.4643 19.3764 10.5455 19.3919 10.626 19.3919C10.7887 19.3919 10.9485 19.3284 11.0681 19.2089C12.3233 17.9537 13.8715 18.0322 14.3772 18.0987L14.5961 18.3175C14.1653 19.3425 13.8183 20.3618 13.5638 21.3531C13.472 21.7118 13.503 22.0915 13.6395 22.4387C13.0378 22.716 12.4572 23.1232 11.9517 23.6287C10.3429 25.2376 10.0162 29.1585 10.0031 29.3246C9.98873 29.5069 10.0549 29.6864 10.1842 29.8157C10.3019 29.9333 10.461 29.9988 10.626 29.9988C10.6424 29.9988 10.6589 29.9981 10.6753 29.9968C10.8414 29.9838 14.7624 29.6571 16.3712 28.0483C16.8765 27.543 17.2837 26.9625 17.561 26.3608C17.9286 26.5054 18.307 26.5232 18.6472 26.436C19.6381 26.1816 20.6572 25.8347 21.6823 25.4039L21.9012 25.6228C21.9676 26.1286 22.0461 27.6768 20.791 28.9318C20.6123 29.1106 20.5588 29.3794 20.6556 29.6129C20.7523 29.8465 20.9801 29.9987 21.233 29.9987C23.7067 29.9987 27.1651 28.5255 28.4389 26.1455C28.9921 25.1119 29.3687 23.4768 28.1676 21.4362C28.6768 21.0058 29.1672 20.5558 29.6298 20.0932C31.6936 18.0295 33.3137 15.358 34.4453 12.1533C35.8591 8.15344 35.9942 4.78869 35.9993 4.64744C36.0056 4.47401 35.9394 4.30582 35.8167 4.18307ZM11.3983 17.4226C11.7866 15.5437 12.9143 13.4819 14.4443 12.663C15.4667 12.1159 16.5843 12.1695 17.7725 12.8199C16.7602 14.1513 15.8802 15.5857 15.1466 17.1004C15.1373 17.0946 15.0248 16.9532 14.8158 16.906C14.7298 16.8866 13.0762 16.5309 11.3983 17.4226ZM15.4873 27.1643C14.628 28.0237 12.612 28.477 11.3378 28.662C11.523 27.3878 11.9763 25.3719 12.8356 24.5126C13.3168 24.0313 13.8748 23.6665 14.4357 23.461L16.539 25.5642C16.3335 26.1251 15.9687 26.6831 15.4873 27.1643ZM18.3367 25.2252C18.1558 25.2715 17.9463 25.2035 17.7906 25.048C16.982 24.2394 16.6657 23.9231 16.5665 23.8239C16.3845 23.6419 15.9382 23.1956 14.9523 22.2097C14.7965 22.0535 14.7285 21.8441 14.7747 21.6635C14.9748 20.8839 15.2367 20.084 15.555 19.2765L20.7235 24.4449C19.9158 24.7633 19.116 25.0251 18.3367 25.2252ZM27.3369 25.5557C26.5181 27.0856 24.4563 28.2133 22.5775 28.6015C23.1765 27.4742 23.3086 26.0392 23.0897 25.169C23.0389 24.9668 22.907 24.8652 22.8996 24.8533C24.4142 24.1197 25.8485 23.2397 27.18 22.2273C27.8304 23.4157 27.884 24.5334 27.3369 25.5557ZM28.7461 19.2094C28.1829 19.7725 27.5764 20.3165 26.9436 20.8263C25.4222 22.0513 23.7477 23.089 21.9612 23.915L16.085 18.0389C16.911 16.2522 17.9486 14.5777 19.1735 13.0566C19.6837 12.4232 20.2277 11.8167 20.7906 11.2539C22.6422 9.40225 25.0318 7.92862 27.8951 6.86788L33.1321 12.1049C32.0714 14.968 30.5978 17.3577 28.7461 19.2094ZM33.5817 10.7867L29.2133 6.41819C31.5933 5.67894 33.6639 5.40213 34.6974 5.30263C34.5978 6.33631 34.3209 8.40687 33.5817 10.7867Z" fill="white"/>
<path d="M19.0229 29.8156C18.7787 29.5715 18.3829 29.5716 18.1389 29.8157L16.3714 31.5838C16.1274 31.8279 16.1275 32.2237 16.3716 32.4677C16.6157 32.7117 17.0115 32.7117 17.2555 32.4675L19.023 30.6994C19.267 30.4553 19.2669 30.0596 19.0229 29.8156Z" fill="white"/>
<path d="M10.1847 20.9768C9.94075 20.7327 9.54506 20.7327 9.30087 20.9767L7.53275 22.7442C7.28863 22.9882 7.28856 23.3839 7.53256 23.6281C7.7765 23.8721 8.17219 23.8723 8.41644 23.6282L10.1846 21.8607C10.4287 21.6167 10.4287 21.2209 10.1847 20.9768Z" fill="white"/>
<path d="M14.6035 30.6999C14.3595 30.4558 13.9637 30.4558 13.7196 30.6998L9.48584 34.933C9.24171 35.177 9.24171 35.5728 9.48577 35.8168C9.72971 36.0609 10.1255 36.061 10.3696 35.8169L14.6034 31.5838C14.8475 31.3397 14.8475 30.944 14.6035 30.6999Z" fill="white"/>
<path d="M9.60345 30.6999C9.35945 30.4558 8.96364 30.4558 8.71958 30.6998L4.48584 34.933C4.24171 35.177 4.24171 35.5728 4.48577 35.8168C4.72971 36.0609 5.12552 36.061 5.36965 35.8169L9.60339 31.5838C9.84751 31.3397 9.84751 30.944 9.60345 30.6999Z" fill="white"/>
<path d="M9.30003 25.3961C9.05603 25.1521 8.66022 25.1521 8.41616 25.3962L4.18304 29.6299C3.93898 29.8741 3.93898 30.2697 4.1831 30.5139C4.42716 30.7579 4.82291 30.7579 5.06697 30.5138L9.30009 26.2801C9.54415 26.0359 9.54415 25.6403 9.30003 25.3961Z" fill="white"/>
<path d="M23.4429 16.5573C23.1988 16.3133 22.8032 16.3133 22.559 16.5573L21.6752 17.4411C21.4312 17.6851 21.4312 18.0809 21.6752 18.325C21.9194 18.5691 22.315 18.5691 22.5592 18.325L23.4429 17.4412C23.687 17.1972 23.687 16.8014 23.4429 16.5573Z" fill="white"/>
</g>
<defs>
<clipPath id="clip0_107_734">
<rect width="32" height="32" fill="white" transform="translate(4 4)"/>
</clipPath>
</defs>
</svg>
