<svg width="40" height="40" viewBox="0 0 40 40" fill="none" xmlns="http://www.w3.org/2000/svg">
<rect width="40" height="40" rx="4" fill="#AA00FF"/>
<path d="M31.9489 8.1614H31.5692C32.2929 6.98311 32.0257 5.4012 30.8642 4.53941C29.6126 3.61093 27.8341 3.90979 26.9607 5.21502L24.9891 8.16146H8.05211C6.65995 8.16146 5.52734 9.29406 5.52734 10.6862V26.828C5.52734 28.2202 6.65995 29.3528 8.05211 29.3528H17.859L17.1181 32.465H15.5188C14.4765 32.465 13.6285 33.313 13.6285 34.3553V34.7499H11.657C11.3118 34.7499 11.032 35.0298 11.032 35.3749C11.032 35.72 11.3118 35.9999 11.657 35.9999H28.3441C28.6893 35.9999 28.9691 35.72 28.9691 35.3749C28.9691 35.0298 28.6893 34.7499 28.3441 34.7499H26.3726V34.3553C26.3726 33.313 25.5246 32.465 24.4823 32.465H22.883L22.142 29.3528H31.949C33.3411 29.3528 34.4737 28.2202 34.4737 26.828V23.2762V10.6862C34.4737 9.294 33.3411 8.1614 31.9489 8.1614ZM22.9939 19.1486C22.0168 19.8327 20.1861 18.9029 18.4379 19.8357C18.0113 17.6198 18.2803 15.5358 20.5006 15.0758C20.7875 15.016 21.0964 14.989 21.3594 14.9942C22.1109 15.5518 22.871 16.1157 23.6204 16.6717C23.9484 17.626 23.8253 18.5667 22.9939 19.1486ZM23.6238 12.4495L25.393 13.7621L24.0324 15.4209C23.4723 15.0053 22.9908 14.6481 22.4307 14.2325C22.547 14.0587 23.5175 12.6083 23.6238 12.4495ZM27.9996 5.91019C28.473 5.20264 29.4384 5.03802 30.1194 5.54333C30.8006 6.04869 30.9226 7.0203 30.3828 7.67847C29.425 8.84614 27.1479 11.6224 26.1865 12.7946L24.3197 11.4095L27.9996 5.91019ZM25.1225 34.3553V34.7499H14.8785V34.3553C14.8785 34.0023 15.1657 33.715 15.5188 33.715H24.4822C24.8353 33.715 25.1225 34.0023 25.1225 34.3553ZM21.598 32.465H18.403L19.144 29.3528H20.857L21.598 32.465ZM33.2237 26.828C33.2237 27.531 32.6519 28.1028 31.949 28.1028C30.9568 28.1028 9.16765 28.1028 8.05217 28.1028C7.34925 28.1028 6.77738 27.531 6.77738 26.828V23.9012H8.56335C8.90853 23.9012 9.18833 23.6213 9.18833 23.2762C9.18833 22.9311 8.90853 22.6512 8.56335 22.6512H6.77726V10.6862C6.77726 9.98324 7.34912 9.41137 8.05204 9.41137H24.1527C23.5539 10.3062 21.8072 12.9166 21.2538 13.7434C20.0291 13.7545 18.8063 14.1812 18.0058 15.1156C16.9165 16.3872 16.7251 18.3851 17.437 21.054C17.5587 21.5103 18.1281 21.6738 18.4727 21.3447C20.0887 19.8005 22.1014 21.4849 23.9038 20.026C25.004 19.1354 25.2644 17.7196 24.8495 16.3956C25.4103 15.7119 30.0159 10.0967 30.578 9.41137H31.9488C32.6518 9.41137 33.2236 9.98324 33.2236 10.6862V22.6512H13.5631C13.2179 22.6512 12.9381 22.931 12.9381 23.2762C12.9381 23.6213 13.2179 23.9012 13.5631 23.9012H33.2237V26.828Z" fill="white"/>
<path d="M10.942 22.6634C10.6411 22.7249 10.4395 22.9849 10.4395 23.2765C10.4395 23.6675 10.7969 23.9669 11.1863 23.889C11.5324 23.8188 11.7432 23.4853 11.677 23.154C11.6074 22.8122 11.2758 22.5962 10.942 22.6634Z" fill="white"/>
</svg>
