<svg width="12" height="12" viewBox="0 0 12 12" fill="none" xmlns="http://www.w3.org/2000/svg">
<g clip-path="url(#clip0_107_853)">
<path d="M7.05469 6C7.05469 6.58246 6.58246 7.05469 6 7.05469C5.41754 7.05469 4.94531 6.58246 4.94531 6C4.94531 5.41754 5.41754 4.94531 6 4.94531C6.58246 4.94531 7.05469 5.41754 7.05469 6Z" fill="white"/>
<path d="M7.78125 2.8125H4.21875C3.4433 2.8125 2.8125 3.4433 2.8125 4.21875V7.78125C2.8125 8.5567 3.4433 9.1875 4.21875 9.1875H7.78125C8.5567 9.1875 9.1875 8.5567 9.1875 7.78125V4.21875C9.1875 3.4433 8.5567 2.8125 7.78125 2.8125ZM6 7.75781C5.03073 7.75781 4.24219 6.96927 4.24219 6C4.24219 5.03073 5.03073 4.24219 6 4.24219C6.96927 4.24219 7.75781 5.03073 7.75781 6C7.75781 6.96927 6.96927 7.75781 6 7.75781ZM8.01562 4.33594C7.82144 4.33594 7.66406 4.17856 7.66406 3.98438C7.66406 3.79019 7.82144 3.63281 8.01562 3.63281C8.20981 3.63281 8.36719 3.79019 8.36719 3.98438C8.36719 4.17856 8.20981 4.33594 8.01562 4.33594Z" fill="white"/>
<path d="M8.83594 0H3.16406C1.41943 0 0 1.41943 0 3.16406V8.83594C0 10.5806 1.41943 12 3.16406 12H8.83594C10.5806 12 12 10.5806 12 8.83594V3.16406C12 1.41943 10.5806 0 8.83594 0ZM9.89062 7.78125C9.89062 8.94434 8.94434 9.89062 7.78125 9.89062H4.21875C3.05566 9.89062 2.10938 8.94434 2.10938 7.78125V4.21875C2.10938 3.05566 3.05566 2.10938 4.21875 2.10938H7.78125C8.94434 2.10938 9.89062 3.05566 9.89062 4.21875V7.78125Z" fill="white"/>
</g>
<defs>
<clipPath id="clip0_107_853">
<rect width="12" height="12" fill="white"/>
</clipPath>
</defs>
</svg>
