<svg width="12" height="12" viewBox="0 0 12 12" fill="none" xmlns="http://www.w3.org/2000/svg">
<g clip-path="url(#clip0_107_857)">
<path d="M10.8 0H1.2C0.54 0 0 0.54 0 1.2V10.8C0 11.46 0.54 12 1.2 12H10.8C11.46 12 12 11.46 12 10.8V1.2C12 0.54 11.46 0 10.8 0ZM3.6 10.2H1.8V4.8H3.6V10.2ZM2.7 3.78C2.1 3.78 1.62 3.3 1.62 2.7C1.62 2.1 2.1 1.62 2.7 1.62C3.3 1.62 3.78 2.1 3.78 2.7C3.78 3.3 3.3 3.78 2.7 3.78ZM10.2 10.2H8.4V7.02C8.4 6.54002 7.98 6.12 7.5 6.12C7.02 6.12 6.6 6.54002 6.6 7.02V10.2H4.8V4.8H6.6V5.52C6.9 5.04 7.56 4.68 8.1 4.68C9.24 4.68 10.2 5.64 10.2 6.78V10.2Z" fill="white"/>
</g>
<defs>
<clipPath id="clip0_107_857">
<rect width="12" height="12" fill="white"/>
</clipPath>
</defs>
</svg>
