<svg width="12" height="12" viewBox="0 0 12 12" fill="none" xmlns="http://www.w3.org/2000/svg">
<g clip-path="url(#clip0_107_868)">
<path d="M7.00287 7.35204C6.70432 7.55107 6.35754 7.65628 6 7.65628C5.64248 7.65628 5.2957 7.55107 4.99716 7.35204L0.0798984 4.07376C0.0526172 4.05557 0.0260391 4.03661 0 4.01711V9.38892C0 10.0048 0.499805 10.4936 1.10468 10.4936H10.8953C11.5112 10.4936 12 9.99379 12 9.38892V4.01709C11.9739 4.03664 11.9473 4.05564 11.9199 4.07386L7.00287 7.35204Z" fill="white"/>
<path d="M0.469922 3.48897L5.38718 6.76727C5.57332 6.89137 5.78665 6.95341 5.99998 6.95341C6.21333 6.95341 6.42668 6.89135 6.61282 6.76727L11.5301 3.48897C11.8243 3.29292 12 2.96479 12 2.61065C12 2.00172 11.5046 1.50635 10.8957 1.50635H1.1043C0.495398 1.50637 0 2.00175 0 2.61124C0 2.96479 0.175687 3.29292 0.469922 3.48897Z" fill="white"/>
</g>
<defs>
<clipPath id="clip0_107_868">
<rect width="12" height="12" fill="white"/>
</clipPath>
</defs>
</svg>
