<svg width="44" height="44" viewBox="0 0 44 44" fill="none" xmlns="http://www.w3.org/2000/svg">
<g filter="url(#filter0_d_107_236)">
<rect x="6.5" y="3.5" width="31" height="31" rx="3.5" stroke="#262626" shape-rendering="crispEdges"/>
<path d="M31.75 13H12.25C11.4216 13 10.75 12.3284 10.75 11.5C10.75 10.6716 11.4216 10 12.25 10H31.75C32.5784 10 33.25 10.6716 33.25 11.5C33.25 12.3284 32.5784 13 31.75 13Z" fill="#262626"/>
<path d="M31.75 28H12.25C11.4216 28 10.75 27.3284 10.75 26.5C10.75 25.6716 11.4216 25 12.25 25H31.75C32.5784 25 33.25 25.6716 33.25 26.5C33.25 27.3284 32.5784 28 31.75 28Z" fill="#262626"/>
<path d="M31.75 20.5H12.25C11.4216 20.5 10.75 19.8284 10.75 19C10.75 18.1716 11.4216 17.5 12.25 17.5H31.75C32.5784 17.5 33.25 18.1716 33.25 19C33.25 19.8284 32.5784 20.5 31.75 20.5Z" fill="#262626"/>
</g>
<defs>
<filter id="filter0_d_107_236" x="0" y="0" width="44" height="44" filterUnits="userSpaceOnUse" color-interpolation-filters="sRGB">
<feFlood flood-opacity="0" result="BackgroundImageFix"/>
<feColorMatrix in="SourceAlpha" type="matrix" values="0 0 0 0 0 0 0 0 0 0 0 0 0 0 0 0 0 0 127 0" result="hardAlpha"/>
<feOffset dy="3"/>
<feGaussianBlur stdDeviation="3"/>
<feComposite in2="hardAlpha" operator="out"/>
<feColorMatrix type="matrix" values="0 0 0 0 0.245 0 0 0 0 0.245 0 0 0 0 0.245 0 0 0 0.35 0"/>
<feBlend mode="normal" in2="BackgroundImageFix" result="effect1_dropShadow_107_236"/>
<feBlend mode="normal" in="SourceGraphic" in2="effect1_dropShadow_107_236" result="shape"/>
</filter>
</defs>
</svg>
