<svg width="32" height="32" viewBox="0 0 32 32" fill="none" xmlns="http://www.w3.org/2000/svg">
<path d="M25.75 10H6.25C5.42162 10 4.75 9.32838 4.75 8.5C4.75 7.67162 5.42162 7 6.25 7H25.75C26.5784 7 27.25 7.67162 27.25 8.5C27.25 9.32838 26.5784 10 25.75 10Z" fill="#262626"/>
<path d="M25.75 25H6.25C5.42162 25 4.75 24.3284 4.75 23.5C4.75 22.6716 5.42162 22 6.25 22H25.75C26.5784 22 27.25 22.6716 27.25 23.5C27.25 24.3284 26.5784 25 25.75 25Z" fill="#262626"/>
<path d="M25.75 17.5H6.25C5.42162 17.5 4.75 16.8284 4.75 16C4.75 15.1716 5.42162 14.5 6.25 14.5H25.75C26.5784 14.5 27.25 15.1716 27.25 16C27.25 16.8284 26.5784 17.5 25.75 17.5Z" fill="#262626"/>
</svg>
