<svg width="40" height="40" viewBox="0 0 40 40" fill="none" xmlns="http://www.w3.org/2000/svg">
<rect width="40" height="40" rx="4" fill="#AA00FF"/>
<g clip-path="url(#clip0_107_515)">
<path d="M20.7918 19.2094C20.5474 18.965 20.1518 18.965 19.9074 19.2094C19.6637 19.4532 19.6637 19.8488 19.9074 20.0932C20.1518 20.3369 20.5474 20.3369 20.7918 20.0932C21.0355 19.8488 21.0355 19.4532 20.7918 19.2094Z" fill="white"/>
<path d="M28.7452 11.2543C27.524 10.0331 25.547 10.033 24.3257 11.2543C23.1076 12.4724 23.1075 14.4548 24.3258 15.6739C25.5443 16.8917 27.5268 16.8922 28.7452 15.6738C29.9663 14.4527 29.9666 12.4756 28.7452 11.2543ZM27.8613 14.7898C27.1305 15.5207 25.9409 15.5207 25.2097 14.79C24.4788 14.0586 24.4787 12.869 25.2096 12.1382C25.9423 11.4055 27.1285 11.4054 27.8613 12.1382C28.594 12.8708 28.5941 14.0571 27.8613 14.7898Z" fill="white"/>
<path d="M35.8177 4.18307C35.6949 4.06038 35.5274 3.99388 35.3533 4.00044C35.212 4.00551 31.8473 4.14076 27.8476 5.55444C24.6426 6.68606 21.9712 8.30625 19.9075 10.37C19.4451 10.8324 18.9951 11.3228 18.5645 11.8322C16.524 10.6311 14.8889 11.0077 13.8552 11.5609C11.4751 12.8347 10.002 16.2932 10.002 18.7669C10.0021 19.0197 10.1545 19.2476 10.388 19.3443C10.4653 19.3764 10.5465 19.3919 10.627 19.3919C10.7897 19.3919 10.9495 19.3284 11.0691 19.2089C12.3243 17.9537 13.8724 18.0322 14.3782 18.0987L14.5971 18.3175C14.1663 19.3425 13.8193 20.3618 13.5648 21.3531C13.4729 21.7118 13.5039 22.0915 13.6405 22.4387C13.0388 22.716 12.4582 23.1232 11.9527 23.6287C10.3439 25.2376 10.0172 29.1585 10.0041 29.3246C9.9897 29.5069 10.0558 29.6864 10.1851 29.8157C10.3028 29.9333 10.462 29.9988 10.627 29.9988C10.6434 29.9988 10.6598 29.9981 10.6763 29.9968C10.8424 29.9838 14.7634 29.6571 16.3722 28.0483C16.8775 27.543 17.2846 26.9625 17.5619 26.3608C17.9296 26.5054 18.3079 26.5232 18.6482 26.436C19.6391 26.1816 20.6582 25.8347 21.6833 25.4039L21.9022 25.6228C21.9686 26.1286 22.0471 27.6768 20.792 28.9318C20.6133 29.1106 20.5598 29.3794 20.6566 29.6129C20.7532 29.8465 20.9811 29.9987 21.2339 29.9987C23.7077 29.9987 27.1661 28.5255 28.4399 26.1455C28.993 25.1119 29.3697 23.4768 28.1685 21.4362C28.6777 21.0058 29.1682 20.5558 29.6308 20.0932C31.6945 18.0295 33.3147 15.358 34.4463 12.1533C35.86 8.15344 35.9952 4.78869 36.0003 4.64744C36.0065 4.47401 35.9403 4.30582 35.8177 4.18307ZM11.3993 17.4226C11.7876 15.5437 12.9153 13.4819 14.4453 12.663C15.4677 12.1159 16.5853 12.1695 17.7735 12.8199C16.7612 14.1513 15.8811 15.5857 15.1476 17.1004C15.1383 17.0946 15.0258 16.9532 14.8168 16.906C14.7308 16.8866 13.0771 16.5309 11.3993 17.4226ZM15.4883 27.1643C14.6289 28.0237 12.613 28.477 11.3388 28.662C11.524 27.3878 11.9773 25.3719 12.8366 24.5126C13.3178 24.0313 13.8758 23.6665 14.4367 23.461L16.5399 25.5642C16.3344 26.1251 15.9696 26.6831 15.4883 27.1643ZM18.3377 25.2252C18.1568 25.2715 17.9473 25.2035 17.7916 25.048C16.983 24.2394 16.6667 23.9231 16.5674 23.8239C16.3854 23.6419 15.9391 23.1956 14.9533 22.2097C14.7974 22.0535 14.7294 21.8441 14.7756 21.6635C14.9758 20.8839 15.2376 20.084 15.556 19.2765L20.7244 24.4449C19.9167 24.7633 19.117 25.0251 18.3377 25.2252ZM27.3379 25.5557C26.519 27.0856 24.4573 28.2133 22.5784 28.6015C23.1775 27.4742 23.3096 26.0392 23.0907 25.169C23.0399 24.9668 22.908 24.8652 22.9006 24.8533C24.4152 24.1197 25.8495 23.2397 27.181 22.2273C27.8314 23.4157 27.885 24.5334 27.3379 25.5557ZM28.747 19.2094C28.1839 19.7725 27.5774 20.3165 26.9445 20.8263C25.4232 22.0513 23.7487 23.089 21.9622 23.915L16.0859 18.0389C16.9119 16.2522 17.9496 14.5777 19.1744 13.0566C19.6847 12.4232 20.2287 11.8167 20.7916 11.2539C22.6432 9.40225 25.0328 7.92862 27.896 6.86788L33.133 12.1049C32.0724 14.968 30.5988 17.3577 28.747 19.2094ZM33.5827 10.7867L29.2142 6.41819C31.5943 5.67894 33.6648 5.40213 34.6983 5.30263C34.5988 6.33631 34.3219 8.40687 33.5827 10.7867Z" fill="white"/>
<path d="M19.0238 29.8156C18.7797 29.5715 18.3839 29.5716 18.1399 29.8157L16.3724 31.5838C16.1284 31.8279 16.1285 32.2237 16.3725 32.4677C16.6167 32.7117 17.0125 32.7117 17.2565 32.4675L19.024 30.6994C19.268 30.4553 19.2679 30.0596 19.0238 29.8156Z" fill="white"/>
<path d="M10.1847 20.9768C9.94075 20.7327 9.54506 20.7327 9.30087 20.9767L7.53275 22.7442C7.28863 22.9882 7.28856 23.3839 7.53256 23.6281C7.7765 23.8721 8.17219 23.8723 8.41644 23.6282L10.1846 21.8607C10.4287 21.6167 10.4287 21.2209 10.1847 20.9768Z" fill="white"/>
<path d="M14.6035 30.6999C14.3595 30.4558 13.9637 30.4558 13.7196 30.6998L9.48584 34.933C9.24171 35.177 9.24171 35.5728 9.48577 35.8168C9.72971 36.0609 10.1255 36.061 10.3696 35.8169L14.6034 31.5838C14.8475 31.3397 14.8475 30.944 14.6035 30.6999Z" fill="white"/>
<path d="M9.60345 30.6999C9.35945 30.4558 8.96364 30.4558 8.71958 30.6998L4.48584 34.933C4.24171 35.177 4.24171 35.5728 4.48577 35.8168C4.72971 36.0609 5.12552 36.061 5.36965 35.8169L9.60339 31.5838C9.84751 31.3397 9.84751 30.944 9.60345 30.6999Z" fill="white"/>
<path d="M9.30003 25.3961C9.05603 25.1521 8.66022 25.1521 8.41616 25.3962L4.18304 29.6299C3.93898 29.8741 3.93898 30.2697 4.1831 30.5139C4.42716 30.7579 4.82291 30.7579 5.06697 30.5138L9.30009 26.2801C9.54415 26.0359 9.54415 25.6403 9.30003 25.3961Z" fill="white"/>
<path d="M23.4429 16.5573C23.1988 16.3133 22.8032 16.3133 22.559 16.5573L21.6752 17.4411C21.4312 17.6851 21.4312 18.0809 21.6752 18.325C21.9194 18.5691 22.315 18.5691 22.5592 18.325L23.4429 17.4412C23.687 17.1972 23.687 16.8014 23.4429 16.5573Z" fill="white"/>
</g>
<defs>
<clipPath id="clip0_107_515">
<rect width="32" height="32" fill="white" transform="translate(4 4)"/>
</clipPath>
</defs>
</svg>
