<svg width="12" height="12" viewBox="0 0 12 12" fill="none" xmlns="http://www.w3.org/2000/svg">
<g clip-path="url(#clip0_107_861)">
<path d="M6.40172 5.79517L9.10216 9.65776H7.9939L5.79028 6.50588V6.50568L5.46676 6.04299L2.89258 2.36084H4.00084L6.0782 5.33248L6.40172 5.79517Z" fill="white"/>
<path d="M10.7034 0H1.29663C0.580538 0 0 0.580538 0 1.29663V10.7034C0 11.4195 0.580538 12 1.29663 12H10.7034C11.4195 12 12 11.4195 12 10.7034V1.29663C12 0.580538 11.4195 0 10.7034 0ZM7.65399 10.1762L5.42406 6.93086L2.63218 10.1762H1.91061L5.10367 6.46474L1.91061 1.8176H4.34601L6.4576 4.89076L9.10132 1.8176H9.82289L6.77809 5.35697H6.7779L10.0894 10.1762H7.65399Z" fill="white"/>
</g>
<defs>
<clipPath id="clip0_107_861">
<rect width="12" height="12" fill="white"/>
</clipPath>
</defs>
</svg>
