<svg width="40" height="40" viewBox="0 0 40 40" fill="none" xmlns="http://www.w3.org/2000/svg">
<rect width="40" height="40" rx="4" fill="#AA00FF"/>
<g clip-path="url(#clip0_107_465)">
<path d="M35.375 4.64062H4.625C4.27981 4.64062 4 4.9205 4 5.26562V11.6943C4 12.0394 4.27981 12.3193 4.625 12.3193H35.375C35.7202 12.3193 36 12.0394 36 11.6943V5.26562C36 4.9205 35.7202 4.64062 35.375 4.64062ZM34.75 11.0693H5.25V5.89062H34.75V11.0693Z" fill="white"/>
<path d="M33.3372 9.6496L32.8267 9.13917C32.966 8.86367 33.0402 8.55755 33.0402 8.23992C33.0402 7.70661 32.8325 7.20511 32.4554 6.82799C31.6769 6.04956 30.4102 6.04949 29.6317 6.82799C29.2546 7.20511 29.0469 7.70661 29.0469 8.23992C29.0469 8.77323 29.2546 9.27473 29.6317 9.65179C30.0089 10.0289 30.5103 10.2366 31.0436 10.2366C31.3613 10.2366 31.6674 10.1624 31.9429 10.0231L32.4533 10.5335C32.5754 10.6555 32.7353 10.7166 32.8952 10.7166C33.0552 10.7166 33.2152 10.6555 33.3372 10.5335C33.5812 10.2895 33.5812 9.89373 33.3372 9.6496ZM31.5716 8.76786C31.4306 8.90892 31.2431 8.98661 31.0436 8.98661C30.8441 8.98661 30.6567 8.90892 30.5156 8.76786C30.3746 8.6268 30.2969 8.43936 30.2969 8.23992C30.2969 8.04048 30.3746 7.85292 30.5156 7.71192C30.6612 7.56636 30.8524 7.49361 31.0436 7.49361C31.2348 7.49361 31.4261 7.56636 31.5716 7.71192C31.7126 7.85299 31.7904 8.04048 31.7904 8.23992C31.7904 8.43936 31.7127 8.62686 31.5716 8.76786Z" fill="white"/>
<path d="M26.3957 9.48938C26.3876 9.44932 26.3757 9.40995 26.3601 9.37251C26.3444 9.33495 26.3251 9.29813 26.3026 9.26438C26.2801 9.23063 26.2538 9.19813 26.2251 9.16938C26.1963 9.14063 26.1645 9.11438 26.1301 9.09188C26.0963 9.06938 26.0601 9.05001 26.022 9.03438C25.9845 9.01876 25.9451 9.00688 25.9051 8.99876C25.8245 8.98251 25.7413 8.98251 25.6607 8.99876C25.6207 9.00688 25.5813 9.01876 25.5438 9.03438C25.5063 9.05001 25.4701 9.06938 25.4363 9.09188C25.402 9.11438 25.3701 9.14063 25.3407 9.16938C25.312 9.19813 25.2863 9.23057 25.2632 9.26438C25.2407 9.29813 25.2213 9.33501 25.2057 9.37251C25.1901 9.41001 25.1782 9.44932 25.1701 9.48938C25.162 9.52995 25.1582 9.57063 25.1582 9.61188C25.1582 9.65244 25.162 9.69313 25.1701 9.73376C25.1782 9.77376 25.1901 9.81313 25.2057 9.85057C25.2213 9.88813 25.2407 9.92438 25.2632 9.95869C25.2863 9.99244 25.312 10.0249 25.3407 10.0537C25.3701 10.0824 25.402 10.1088 25.4363 10.1312C25.4701 10.1537 25.5063 10.1731 25.5438 10.1887C25.582 10.2043 25.6213 10.2162 25.6607 10.2243C25.7013 10.2324 25.7426 10.2362 25.7832 10.2362C25.8238 10.2362 25.8651 10.2324 25.9051 10.2243C25.9451 10.2163 25.9845 10.2043 26.022 10.1887C26.0595 10.1731 26.0963 10.1537 26.1301 10.1312C26.1645 10.1088 26.1963 10.0824 26.2251 10.0537C26.3413 9.93688 26.4082 9.77626 26.4082 9.61188C26.4082 9.57063 26.4038 9.52995 26.3957 9.48938Z" fill="white"/>
<path d="M23.4133 8.98657H10.4238C10.0786 8.98657 9.79883 9.26645 9.79883 9.61157C9.79883 9.95669 10.0786 10.2366 10.4238 10.2366H23.4133C23.7585 10.2366 24.0383 9.95669 24.0383 9.61157C24.0383 9.26645 23.7585 8.98657 23.4133 8.98657Z" fill="white"/>
<path d="M23.6766 13.2102H4.69922C4.35403 13.2102 4.07422 13.4901 4.07422 13.8352V26.1601C4.07422 26.5053 4.35403 26.7851 4.69922 26.7851H23.6766C24.0218 26.7851 24.3016 26.5052 24.3016 26.1601V13.8352C24.3016 13.4901 24.0218 13.2102 23.6766 13.2102ZM11.6133 25.535H6.30821L9.88101 21.3984L12.4685 24.3947L11.6133 25.535ZM13.1757 25.535L14.3411 23.9812H17.3717C17.7169 23.9812 17.9967 23.7014 17.9967 23.3562C17.9967 23.0111 17.7169 22.7312 17.3717 22.7312H15.2787L15.7172 22.1466H19.6415L22.183 25.535H13.1757ZM16.6546 20.8966L17.6793 19.5304L18.704 20.8966H16.6546ZM23.0516 24.6099L18.1793 18.1137C18.0612 17.9563 17.876 17.8637 17.6793 17.8637C17.4826 17.8637 17.2974 17.9563 17.1793 18.1137L13.2362 23.3711L10.3541 20.0336C10.2354 19.8962 10.0627 19.8171 9.88107 19.8171C9.69945 19.8171 9.52682 19.8962 9.40807 20.0336L5.32421 24.7619V14.4602H23.0516V24.6099Z" fill="white"/>
<path d="M12.6021 15.1777C11.3838 15.1777 10.3926 16.1689 10.3926 17.3873C10.3926 18.6057 11.3838 19.5968 12.6021 19.5968C13.8205 19.5968 14.8117 18.6057 14.8117 17.3873C14.8117 16.1689 13.8205 15.1777 12.6021 15.1777ZM12.6021 18.3469C12.073 18.3469 11.6426 17.9165 11.6426 17.3874C11.6426 16.8582 12.0731 16.4278 12.6021 16.4278C13.1312 16.4278 13.5617 16.8582 13.5617 17.3874C13.5617 17.9165 13.1313 18.3469 12.6021 18.3469Z" fill="white"/>
<path d="M35.3751 13.2102H25.7695C25.4243 13.2102 25.1445 13.4901 25.1445 13.8352V26.1601C25.1445 26.5052 25.4243 26.7851 25.7695 26.7851H35.3751C35.7203 26.7851 36.0001 26.5052 36.0001 26.1601V13.8352C36.0001 13.4901 35.7203 13.2102 35.3751 13.2102ZM34.7501 25.5351H26.3945V14.4602H34.7501V25.5351Z" fill="white"/>
<path d="M33.2948 15.4897H27.8496C27.5044 15.4897 27.2246 15.7696 27.2246 16.1147C27.2246 16.4599 27.5044 16.7397 27.8496 16.7397H33.2948C33.64 16.7397 33.9198 16.4599 33.9198 16.1147C33.9198 15.7696 33.64 15.4897 33.2948 15.4897Z" fill="white"/>
<path d="M33.2948 17.998H27.8496C27.5044 17.998 27.2246 18.2779 27.2246 18.623C27.2246 18.9682 27.5044 19.248 27.8496 19.248H33.2948C33.64 19.248 33.9198 18.9682 33.9198 18.623C33.9198 18.2779 33.64 17.998 33.2948 17.998Z" fill="white"/>
<path d="M33.2948 20.5063H27.8496C27.5044 20.5063 27.2246 20.7862 27.2246 21.1313C27.2246 21.4765 27.5044 21.7563 27.8496 21.7563H33.2948C33.64 21.7563 33.9198 21.4765 33.9198 21.1313C33.9198 20.7862 33.64 20.5063 33.2948 20.5063Z" fill="white"/>
<path d="M28.4627 23.5176C28.4546 23.4775 28.4427 23.4381 28.4271 23.4007C28.4115 23.3631 28.3921 23.3269 28.3696 23.2926C28.3465 23.2588 28.3209 23.2263 28.2915 23.1976C28.1465 23.0526 27.9309 22.9856 27.7277 23.0269C27.6877 23.0351 27.6484 23.0469 27.6109 23.0626C27.5734 23.0782 27.5371 23.0976 27.5027 23.1201C27.469 23.1426 27.4365 23.1688 27.4077 23.1976C27.379 23.2263 27.3527 23.2587 27.3302 23.2926C27.3077 23.3269 27.2884 23.3632 27.2727 23.4007C27.2571 23.4382 27.2452 23.4775 27.2371 23.5176C27.229 23.5581 27.2246 23.5988 27.2246 23.6394C27.2246 23.6806 27.229 23.7213 27.2371 23.7619C27.2452 23.8019 27.2571 23.8413 27.2727 23.8788C27.2884 23.9164 27.3077 23.9526 27.3302 23.9869C27.3527 24.0207 27.379 24.0532 27.4077 24.0819C27.4365 24.1107 27.469 24.1369 27.5027 24.1594C27.5371 24.1819 27.5734 24.2013 27.6109 24.2169C27.6484 24.2326 27.6877 24.2444 27.7277 24.2526C27.7684 24.2607 27.809 24.2651 27.8502 24.2651C28.0146 24.2651 28.1752 24.1982 28.2915 24.0819C28.3202 24.0531 28.3465 24.0207 28.3696 23.9869C28.3921 23.9525 28.4115 23.9162 28.4271 23.8787C28.4427 23.8412 28.4546 23.8019 28.4627 23.7619C28.4709 23.7213 28.4746 23.6806 28.4746 23.6394C28.4746 23.5988 28.4709 23.5581 28.4627 23.5176Z" fill="white"/>
<path d="M33.2946 23.0146H30.2187C29.8736 23.0146 29.5938 23.2945 29.5938 23.6396C29.5938 23.9848 29.8736 24.2646 30.2187 24.2646H33.2946C33.6398 24.2646 33.9196 23.9848 33.9196 23.6396C33.9196 23.2945 33.6398 23.0146 33.2946 23.0146Z" fill="white"/>
<path d="M14.3048 27.6719H4.69922C4.35403 27.6719 4.07422 27.9517 4.07422 28.2969V34.7345C4.07422 35.0796 4.35403 35.3595 4.69922 35.3595H14.3048C14.65 35.3595 14.9298 35.0796 14.9298 34.7345V28.2969C14.9298 27.9517 14.65 27.6719 14.3048 27.6719ZM13.6798 34.1095H5.32421V28.9219H13.6798V34.1095Z" fill="white"/>
<path d="M35.3745 27.6719H16.4824C16.1372 27.6719 15.8574 27.9517 15.8574 28.2969V34.7345C15.8574 35.0796 16.1372 35.3595 16.4824 35.3595H35.3745C35.7197 35.3595 35.9995 35.0796 35.9995 34.7345V28.2969C35.9995 27.9517 35.7197 27.6719 35.3745 27.6719ZM34.7495 34.1095H17.1074V28.9219H34.7495V34.1095Z" fill="white"/>
<path d="M19.9543 31.3938C19.9462 31.3539 19.9343 31.3145 19.9187 31.277C19.903 31.2388 19.8837 31.2027 19.8612 31.1689C19.8387 31.1345 19.8124 31.1026 19.7837 31.0738C19.7549 31.0451 19.723 31.0188 19.6887 30.9963C19.6549 30.9739 19.6187 30.9545 19.5805 30.9388C19.543 30.9232 19.5037 30.9107 19.4637 30.9026C19.383 30.887 19.2999 30.887 19.2193 30.9026C19.1799 30.9107 19.1405 30.9232 19.1024 30.9388C19.0649 30.9545 19.0287 30.9739 18.9949 30.9963C18.9605 31.0188 18.9287 31.0451 18.8999 31.0738C18.8712 31.1026 18.8449 31.1345 18.8218 31.1689C18.7993 31.2027 18.7799 31.2388 18.7643 31.277C18.7487 31.3145 18.7368 31.3538 18.7287 31.3938C18.7205 31.4338 18.7168 31.4751 18.7168 31.5157C18.7168 31.5563 18.7205 31.5976 18.7287 31.6376C18.7368 31.6775 18.7487 31.7169 18.7643 31.755C18.7799 31.7925 18.7993 31.8288 18.8218 31.8625C18.8449 31.8969 18.8712 31.9288 18.8999 31.9575C19.0162 32.0738 19.1774 32.1407 19.3418 32.1407C19.3824 32.1407 19.4237 32.1369 19.4637 32.1288C19.5037 32.1207 19.543 32.1082 19.5805 32.0926C19.6187 32.077 19.6549 32.0582 19.6887 32.0351C19.723 32.0126 19.7549 31.9864 19.7837 31.9576C19.8124 31.9288 19.8387 31.897 19.8612 31.8626C19.8837 31.8288 19.903 31.7926 19.9187 31.7551C19.9343 31.717 19.9462 31.6776 19.9543 31.6376C19.9624 31.5975 19.9668 31.5563 19.9668 31.5157C19.9668 31.4751 19.9624 31.4338 19.9543 31.3938Z" fill="white"/>
<path d="M32.2065 30.8906H21.7109C21.3657 30.8906 21.0859 31.1705 21.0859 31.5156C21.0859 31.8607 21.3657 32.1406 21.7109 32.1406H32.2065C32.5517 32.1406 32.8315 31.8607 32.8315 31.5156C32.8315 31.1705 32.5517 30.8906 32.2065 30.8906Z" fill="white"/>
</g>
<defs>
<clipPath id="clip0_107_465">
<rect width="32" height="32" fill="white" transform="translate(4 4)"/>
</clipPath>
</defs>
</svg>
