<svg width="40" height="40" viewBox="0 0 40 40" fill="none" xmlns="http://www.w3.org/2000/svg">
<rect width="40" height="40" rx="4" fill="#AA00FF"/>
<g clip-path="url(#clip0_107_433)">
<path d="M7.68555 15.7216C7.77686 15.8129 7.89674 15.8588 8.01661 15.8588C8.13648 15.8588 8.25636 15.8132 8.34791 15.7216C8.53077 15.5388 8.53077 15.2421 8.34791 15.0593L7.2107 13.9221L8.34791 12.7851C8.53077 12.602 8.53077 12.3056 8.34791 12.1227C8.16505 11.9399 7.86842 11.9399 7.68555 12.1227L6.21729 13.591C6.12939 13.6789 6.08008 13.798 6.08008 13.9221C6.08008 14.0463 6.12939 14.1655 6.21729 14.2534L7.68555 15.7216Z" fill="white"/>
<path d="M12.3329 13.9221L11.1957 15.0593C11.0128 15.2421 11.0128 15.5388 11.196 15.7216C11.2873 15.8129 11.4071 15.8588 11.527 15.8588C11.6469 15.8588 11.7668 15.8129 11.8581 15.7216L13.3266 14.2531C13.5094 14.0703 13.5094 13.7736 13.3266 13.591L11.8581 12.1225C11.6752 11.9396 11.3788 11.9396 11.196 12.1225C11.0128 12.3056 11.0128 12.602 11.196 12.7849L12.3329 13.9221Z" fill="white"/>
<path d="M9.07256 15.8265C9.12871 15.8484 9.18681 15.8589 9.2437 15.8589C9.43071 15.8589 9.60723 15.7462 9.67974 15.5618L10.8333 12.625C10.928 12.3843 10.8094 12.1126 10.5687 12.0179C10.3282 11.9234 10.0562 12.0418 9.96172 12.2825L8.80791 15.2193C8.71342 15.46 8.83183 15.732 9.07256 15.8265Z" fill="white"/>
<path d="M6.81397 18.6064H9.96901C10.2276 18.6064 10.4373 18.3967 10.4373 18.1379C10.4373 17.8794 10.2276 17.6697 9.96901 17.6697H6.81397C6.55518 17.6697 6.3457 17.8794 6.3457 18.1379C6.3457 18.3967 6.55518 18.6064 6.81397 18.6064Z" fill="white"/>
<path d="M17.2339 17.6697H11.687C11.4285 17.6697 11.2188 17.8794 11.2188 18.1379C11.2188 18.3967 11.4285 18.6064 11.687 18.6064H17.2339C17.4927 18.6064 17.7024 18.3967 17.7024 18.1379C17.7024 17.8794 17.4927 17.6697 17.2339 17.6697Z" fill="white"/>
<path d="M6.81397 20.5818H8.15797C8.41651 20.5818 8.62623 20.3721 8.62623 20.1133C8.62623 19.8547 8.41651 19.645 8.15797 19.645H6.81397C6.55518 19.645 6.3457 19.8547 6.3457 20.1133C6.3457 20.3721 6.55518 20.5818 6.81397 20.5818Z" fill="white"/>
<path d="M15.521 19.645C15.2622 19.645 15.0527 19.8547 15.0527 20.1133C15.0527 20.3721 15.2622 20.5818 15.521 20.5818H16.3394C16.5982 20.5818 16.8079 20.3721 16.8079 20.1133C16.8079 19.8547 16.5982 19.645 16.3394 19.645H15.521Z" fill="white"/>
<path d="M14.2886 20.1133C14.2886 19.8547 14.0789 19.645 13.8203 19.645H9.80029C9.5415 19.645 9.33203 19.8547 9.33203 20.1133C9.33203 20.3721 9.5415 20.5818 9.80029 20.5818H13.8203C14.0789 20.5818 14.2886 20.3721 14.2886 20.1133Z" fill="white"/>
<path d="M17.3574 20.1133C17.3574 20.3721 17.5671 20.5818 17.8257 20.5818H19.3587C19.6174 20.5818 19.8272 20.3721 19.8272 20.1133C19.8272 19.8547 19.6174 19.645 19.3587 19.645H17.8257C17.5671 19.645 17.3574 19.8547 17.3574 20.1133Z" fill="white"/>
<path d="M14.8064 14.2979H16.4233C16.6821 14.2979 16.8919 14.0881 16.8919 13.8293C16.8919 13.5708 16.6821 13.3611 16.4233 13.3611H14.8064C14.5476 13.3611 14.3379 13.5708 14.3379 13.8293C14.3379 14.0881 14.5476 14.2979 14.8064 14.2979Z" fill="white"/>
<path d="M18.2341 14.2979H28.1001C28.3589 14.2979 28.5684 14.0881 28.5684 13.8293C28.5684 13.5708 28.3589 13.3611 28.1001 13.3611H18.2341C17.9753 13.3611 17.7656 13.5708 17.7656 13.8293C17.7656 14.0881 17.9753 14.2979 18.2341 14.2979Z" fill="white"/>
<path d="M26.6016 15.4216H22.605C22.3464 15.4216 22.1367 15.6313 22.1367 15.8901C22.1367 16.1487 22.3464 16.3584 22.605 16.3584H26.6016C26.8601 16.3584 27.0698 16.1487 27.0698 15.8901C27.0698 15.6313 26.8601 15.4216 26.6016 15.4216Z" fill="white"/>
<path d="M21.1057 15.4216H19.7319C19.4731 15.4216 19.2637 15.6313 19.2637 15.8901C19.2637 16.1487 19.4731 16.3584 19.7319 16.3584H21.1057C21.3645 16.3584 21.574 16.1487 21.574 15.8901C21.574 15.6313 21.3645 15.4216 21.1057 15.4216Z" fill="white"/>
<path d="M14.8064 16.3584H18.1719C18.4304 16.3584 18.6402 16.1487 18.6402 15.8901C18.6402 15.6313 18.4304 15.4216 18.1719 15.4216H14.8064C14.5476 15.4216 14.3379 15.6313 14.3379 15.8901C14.3379 16.1487 14.5476 16.3584 14.8064 16.3584Z" fill="white"/>
<path d="M13.8264 21.6038H10.6716C10.4128 21.6038 10.2031 21.8135 10.2031 22.072C10.2031 22.3306 10.4128 22.5403 10.6716 22.5403H13.8264C14.085 22.5403 14.2947 22.3306 14.2947 22.072C14.2947 21.8135 14.085 21.6038 13.8264 21.6038Z" fill="white"/>
<path d="M9.2378 21.6038H6.81397C6.55518 21.6038 6.3457 21.8135 6.3457 22.072C6.3457 22.3306 6.55518 22.5403 6.81397 22.5403H9.2378C9.49659 22.5403 9.70607 22.3306 9.70607 22.072C9.70607 21.8135 9.49659 21.6038 9.2378 21.6038Z" fill="white"/>
<path d="M19.5447 21.6038H15.4233C15.1646 21.6038 14.9551 21.8135 14.9551 22.072C14.9551 22.3306 15.1646 22.5403 15.4233 22.5403H19.5447C19.8032 22.5403 20.013 22.3306 20.013 22.072C20.013 21.8135 19.8032 21.6038 19.5447 21.6038Z" fill="white"/>
<path d="M25.1184 19.198H22.8647C22.6062 19.198 22.3965 19.4077 22.3965 19.6663C22.3965 19.9251 22.6062 20.1348 22.8647 20.1348H25.1184C25.3772 20.1348 25.5867 19.9251 25.5867 19.6663C25.5867 19.4077 25.3772 19.198 25.1184 19.198Z" fill="white"/>
<path d="M29.0288 20.1348H32.2102C32.469 20.1348 32.6787 19.9251 32.6787 19.6663C32.6787 19.4077 32.469 19.198 32.2102 19.198H29.0288C28.77 19.198 28.5605 19.4077 28.5605 19.6663C28.5605 19.9251 28.7703 20.1348 29.0288 20.1348Z" fill="white"/>
<path d="M27.4377 19.198H26.7087C26.45 19.198 26.2402 19.4077 26.2402 19.6663C26.2402 19.9251 26.45 20.1348 26.7087 20.1348H27.4377C27.6965 20.1348 27.906 19.9251 27.906 19.6663C27.906 19.4077 27.6965 19.198 27.4377 19.198Z" fill="white"/>
<path d="M22.8647 25.2383H25.1184C25.3772 25.2383 25.5867 25.0288 25.5867 24.77C25.5867 24.5115 25.3772 24.3018 25.1184 24.3018H22.8647C22.6062 24.3018 22.3965 24.5115 22.3965 24.77C22.3965 25.0288 22.6062 25.2383 22.8647 25.2383Z" fill="white"/>
<path d="M29.0288 25.2383H32.2102C32.469 25.2383 32.6787 25.0288 32.6787 24.77C32.6787 24.5115 32.469 24.3018 32.2102 24.3018H29.0288C28.77 24.3018 28.5605 24.5115 28.5605 24.77C28.5605 25.0288 28.7703 25.2383 29.0288 25.2383Z" fill="white"/>
<path d="M26.7105 25.2383H27.4395C27.6982 25.2383 27.908 25.0288 27.908 24.77C27.908 24.5115 27.6982 24.3018 27.4395 24.3018H26.7105C26.4517 24.3018 26.2422 24.5115 26.2422 24.77C26.2422 25.0288 26.4517 25.2383 26.7105 25.2383Z" fill="white"/>
<path d="M25.1184 29.4055H22.8647C22.6062 29.4055 22.3965 29.6152 22.3965 29.8738C22.3965 30.1323 22.6062 30.342 22.8647 30.342H25.1184C25.3772 30.342 25.5867 30.1323 25.5867 29.8738C25.5867 29.6152 25.3772 29.4055 25.1184 29.4055Z" fill="white"/>
<path d="M32.2102 29.4055H29.0288C28.77 29.4055 28.5605 29.6152 28.5605 29.8738C28.5605 30.1323 28.77 30.342 29.0288 30.342H32.2102C32.469 30.342 32.6787 30.1323 32.6787 29.8738C32.6787 29.6152 32.469 29.4055 32.2102 29.4055Z" fill="white"/>
<path d="M27.4377 29.4055H26.7087C26.45 29.4055 26.2402 29.6152 26.2402 29.8738C26.2402 30.1323 26.45 30.342 26.7087 30.342H27.4377C27.6965 30.342 27.906 30.1323 27.906 29.8738C27.906 29.6152 27.6965 29.4055 27.4377 29.4055Z" fill="white"/>
<path d="M33.9391 4.0625H6.06129C4.92481 4.0625 4 4.98706 4 6.12379V28.7843C4 29.9208 4.92481 30.8453 6.06129 30.8453H7.82375C8.08229 30.8453 8.29201 30.6358 8.29201 30.3771C8.29201 30.1185 8.08229 29.9088 7.82375 29.9088H6.06129C5.44117 29.9088 4.93677 29.4044 4.93677 28.7843V27.0077H21.9991V27.8148H21.6278C21.1197 27.8148 20.7066 28.2279 20.7066 28.7359V29.9088H10.6712C10.4126 29.9088 10.2029 30.1185 10.2029 30.3771C10.2029 30.6358 10.4126 30.8453 10.6712 30.8453H15.1741V32.525H13.76C12.8167 32.525 12.0493 33.2926 12.0493 34.2357V35.2474C12.0493 35.6779 12.3994 36.028 12.8299 36.028H27.1346C27.565 36.028 27.9151 35.6779 27.9151 35.2474V34.2357C27.9151 33.2926 27.1478 32.525 26.2044 32.525H24.7904V31.933H33.4484C33.9562 31.933 34.3693 31.5199 34.3693 31.0118V30.7914C35.2821 30.5795 35.9645 29.7604 35.9645 28.7843L35.9999 6.12354C36.0001 4.98706 35.0756 4.0625 33.9391 4.0625ZM21.6434 25.8927V23.6478H33.4327V25.8927H21.6434ZM22.9356 22.711V21.7257H32.1402V22.711H22.9356ZM32.1402 26.8292V27.8148H22.9356V26.8292H32.1402ZM16.1106 30.8453H20.7066V31.0121C20.7066 31.5199 21.1197 31.933 21.6278 31.933H23.8538V32.525H16.1106V30.8453ZM26.2047 33.4618C26.6314 33.4618 26.9786 33.809 26.9786 34.2357V35.0914H12.9859V34.2357C12.9859 33.809 13.3333 33.4618 13.76 33.4618H26.2047ZM33.4327 30.9962H21.6434V28.7516H33.4327V30.9962ZM35.028 28.7843C35.028 29.2379 34.7574 29.6288 34.3695 29.8063V28.7357C34.3695 28.2279 33.9562 27.8148 33.4484 27.8148H33.077V27.0077H35.028V28.7843ZM35.028 26.0711H34.3541C34.3636 26.0182 34.3695 23.6322 34.3695 23.6322C34.3695 23.1241 33.9562 22.711 33.4484 22.711H33.077V21.7257H33.4484C33.9562 21.7257 34.3695 21.3123 34.3695 20.8045V18.5284C34.3695 18.0206 33.9562 17.6072 33.4484 17.6072H30.8031C30.5443 17.6072 30.3348 17.8169 30.3348 18.0757C30.3348 18.3343 30.5443 18.544 30.8031 18.544H33.4327V20.7889H21.6434V18.544H27.889C28.1478 18.544 28.3573 18.3343 28.3573 18.0757C28.3573 17.8169 28.1478 17.6072 27.889 17.6072H21.6278C21.1197 17.6072 20.7066 18.0206 20.7066 18.5284V20.8045C20.7066 21.3123 21.1197 21.7257 21.6278 21.7257H21.9991V22.711H21.6278C21.1197 22.711 20.7066 23.1243 20.7066 23.6322C20.7066 23.6322 20.7125 26.0182 20.722 26.0711H4.93677V10.4331H35.028V26.0711ZM35.028 9.49636H4.9712V6.12354C4.9712 5.50367 5.47559 4.99927 6.09571 4.99927H33.9034C34.5236 4.99927 35.028 5.50367 35.028 6.12379V9.49636Z" fill="white"/>
<path d="M7.45435 5.86011C6.69654 5.86011 6.08008 6.47656 6.08008 7.23438C6.08008 7.9922 6.69654 8.6089 7.45435 8.6089C8.21217 8.6089 8.82887 7.9922 8.82887 7.23438C8.82887 6.47656 8.21217 5.86011 7.45435 5.86011ZM7.45435 7.67213C7.21314 7.67213 7.01661 7.47584 7.01661 7.23438C7.01661 6.99317 7.21314 6.79663 7.45435 6.79663C7.69581 6.79663 7.8921 6.99317 7.8921 7.23438C7.8921 7.47584 7.69581 7.67213 7.45435 7.67213Z" fill="white"/>
<path d="M10.9526 5.86011C10.1948 5.86011 9.57812 6.47656 9.57812 7.23438C9.57812 7.9922 10.1948 8.6089 10.9526 8.6089C11.7105 8.6089 12.3269 7.9922 12.3269 7.23438C12.3269 6.47656 11.7102 5.86011 10.9526 5.86011ZM10.9526 7.67213C10.7112 7.67213 10.5149 7.47584 10.5149 7.23438C10.5149 6.99317 10.7112 6.79663 10.9526 6.79663C11.1939 6.79663 11.3904 6.99317 11.3904 7.23438C11.3904 7.47584 11.1939 7.67213 10.9526 7.67213Z" fill="white"/>
<path d="M14.4524 5.86011C13.6946 5.86011 13.0781 6.47656 13.0781 7.23438C13.0781 7.9922 13.6946 8.6089 14.4524 8.6089C15.2102 8.6089 15.8269 7.9922 15.8269 7.23438C15.8269 6.47656 15.2102 5.86011 14.4524 5.86011ZM14.4524 7.67213C14.2112 7.67213 14.0147 7.47584 14.0147 7.23438C14.0147 6.99317 14.2112 6.79663 14.4524 6.79663C14.6939 6.79663 14.8901 6.99317 14.8901 7.23438C14.8901 7.47584 14.6939 7.67213 14.4524 7.67213Z" fill="white"/>
</g>
<defs>
<clipPath id="clip0_107_433">
<rect width="32" height="32" fill="white" transform="translate(4 4)"/>
</clipPath>
</defs>
</svg>
